<svg width="73" height="72" viewBox="0 0 73 72" fill="none" xmlns="http://www.w3.org/2000/svg">
<path d="M72.3266 65.6557C72.3266 65.6557 59.2576 58.4474 51.1463 58.4474C41.4124 58.4474 31.9535 61.6603 28.3637 62.7211C18.9387 65.5047 0.677734 65.6557 0.677734 65.6557H72.3266Z" fill="#DBDBDB"/>
<path d="M0.677734 65.6558C0.677734 65.6558 8.10163 61.4618 16.4862 61.4618C22.3384 61.4618 30.7433 62.3308 38.6509 63.7548C41.6636 64.2979 57.3447 65.6558 57.3447 65.6558H0.677734Z" fill="#C7C7C7"/>
<path d="M41.2897 43.9305C42.1859 43.9305 64.5424 43.7743 70.8478 43.7743C71.2891 43.7743 70.7307 43.0105 70.488 42.9579C69.7106 42.7882 68.9027 42.778 68.1118 42.6965C67.3333 42.6231 66.5705 42.4319 65.8493 42.1297C65.2298 41.8683 64.6086 41.5645 63.9365 41.4507C62.6364 41.2471 61.4941 41.9599 60.2755 42.2637C59.9058 42.3725 59.5174 42.4028 59.1354 42.3525C58.7533 42.3022 58.386 42.1726 58.0571 41.9718C57.4936 41.6323 56.981 41.2284 56.3921 40.9297C55.2644 40.3739 54.0342 40.0569 52.7783 39.9985C51.5225 39.9401 50.2682 40.1415 49.0938 40.5902C48.5337 40.8055 47.9978 41.0791 47.4949 41.4066C46.8992 41.7987 46.3866 42.2977 45.7892 42.6847C44.4653 43.5333 42.8274 43.2617 41.3847 43.7523C41.3016 43.7845 41.2116 43.9305 41.2897 43.9305Z" fill="#EBEBEB"/>
<path d="M46.0433 11.7876C47.2314 11.7876 67.154 11.9183 68.4066 11.8792C68.4966 11.8792 68.5441 11.7435 68.4541 11.6993C67.6649 11.309 66.7704 11.387 65.949 11.1104C65.4669 10.9406 65.1699 10.6317 64.8355 10.2702C64.5577 9.95419 64.1993 9.71954 63.7985 9.59131C63.4317 9.48174 63.0426 9.47004 62.6698 9.55736C62.2659 9.65241 61.9145 9.88494 61.5292 10.0309C60.572 10.3924 59.6419 10.0479 58.9579 9.34011C58.3944 8.75625 57.8394 8.20463 57.0739 7.89064C56.7608 7.74955 56.4221 7.67434 56.0787 7.66967C55.7354 7.66499 55.3947 7.73096 55.0779 7.86348C54.3464 8.19445 53.8457 8.85978 53.1583 9.26034C52.3453 9.73728 51.371 9.62356 50.4732 9.76952C49.5753 9.91549 48.8845 10.6691 48.097 11.1053C47.8405 11.271 47.5434 11.3631 47.2382 11.3718C47.0684 11.3718 46.8885 11.3191 46.7154 11.2988C46.4438 11.2648 46.1859 11.2716 46.0026 11.499C45.9567 11.5534 45.9652 11.7876 46.0433 11.7876Z" fill="#EBEBEB"/>
<path d="M4.59333 16.4193C5.45725 16.4193 20.0046 16.5161 20.9194 16.4855C20.9856 16.4855 21.0213 16.3871 20.9551 16.3548C20.3797 16.0697 19.7246 16.1274 19.1254 15.9254C18.7741 15.8066 18.5568 15.5758 18.3124 15.3127C18.1096 15.0821 17.848 14.9108 17.5554 14.8171C17.288 14.7367 17.0041 14.7279 16.7323 14.7917C16.4476 14.8871 16.1693 15.0005 15.8989 15.1311C15.1996 15.3942 14.5207 15.1447 14.0217 14.6219C13.6093 14.1959 13.2053 13.7937 12.6452 13.5645C12.417 13.461 12.1698 13.4058 11.9192 13.4023C11.6686 13.3988 11.42 13.4471 11.189 13.5442C10.6543 13.7852 10.2894 14.2723 9.787 14.5625C9.19296 14.902 8.48349 14.8273 7.82665 14.9325C7.1698 15.0378 6.66231 15.603 6.08694 15.9254C5.89987 16.0462 5.6832 16.1131 5.46064 16.1189C5.33247 16.1076 5.205 16.0895 5.07875 16.0646C4.98695 16.0394 4.89001 16.0399 4.79845 16.0659C4.70689 16.092 4.62421 16.1426 4.55939 16.2123C4.52544 16.2496 4.53223 16.4193 4.59333 16.4193Z" fill="#EBEBEB"/>
<path d="M54.1878 34.638C55.0517 34.638 69.6008 34.7348 70.5139 34.7042C70.5801 34.7042 70.6157 34.6058 70.5495 34.5735C69.9742 34.2884 69.3207 34.3461 68.7216 34.1441C68.3685 34.0253 68.153 33.7945 67.9069 33.5314C67.7046 33.3002 67.4428 33.1288 67.1499 33.0358C66.8825 32.9553 66.5986 32.9466 66.3267 33.0103C66.0421 33.1058 65.7637 33.2192 65.4934 33.3498C64.7941 33.6129 64.1152 33.3634 63.6162 32.8406C63.2054 32.4146 62.7998 32.0123 62.2414 31.7832C62.0128 31.6797 61.7654 31.6244 61.5145 31.6209C61.2636 31.6174 61.0148 31.6657 60.7834 31.7628C60.2505 32.0039 59.8839 32.491 59.3832 32.7812C58.7891 33.1292 58.078 33.046 57.4211 33.1512C56.7643 33.2565 56.2619 33.8081 55.6865 34.1272C55.4987 34.2477 55.2816 34.3146 55.0585 34.3206C54.9303 34.3093 54.8028 34.2912 54.6766 34.2663C54.583 34.2416 54.4843 34.2434 54.3917 34.2716C54.2991 34.2997 54.2161 34.3532 54.1521 34.4259C54.125 34.4683 54.1318 34.638 54.1878 34.638Z" fill="#EBEBEB"/>
<path d="M22.2821 21.6709C22.299 21.7185 45.2106 21.6709 44.922 21.6709C44.7897 21.6709 45.1223 21.4724 44.9933 21.4096C44.2465 21.0396 43.4318 21.0294 42.6171 20.9547C42.1371 20.9339 41.6659 20.8185 41.2305 20.6152C40.7977 20.3895 40.5295 19.9974 40.2223 19.6342C39.75 19.0749 39.1429 18.6454 38.4583 18.3861C37.7737 18.1268 37.0344 18.0464 36.3101 18.1525C34.6807 18.4071 33.3975 19.6478 31.7648 19.8769C30.7837 20.0144 29.857 19.6342 28.8997 19.5001C28.1587 19.399 27.4048 19.5369 26.7476 19.8939C26.2384 20.1502 25.753 20.3657 25.1691 20.4031C24.7194 20.4353 24.2696 20.3844 23.8113 20.3793C23.0755 20.3933 22.3701 20.6752 21.8272 21.1719C21.7644 21.2415 21.5336 21.6709 22.2821 21.6709Z" fill="#EBEBEB"/>
<path d="M8.18927 65.5979H7.1709C6.80493 65.5979 6.45395 65.4525 6.19518 65.1937C5.9364 64.9349 5.79102 64.584 5.79102 64.218V57.9839L7.1709 56.604H8.18927C8.55524 56.604 8.90622 56.7494 9.165 57.0082C9.42378 57.2669 9.56916 57.6179 9.56916 57.9839V64.218C9.56916 64.584 9.42378 64.9349 9.165 65.1937C8.90622 65.4525 8.55524 65.5979 8.18927 65.5979Z" fill="#A6A6A6"/>
<path d="M33.0303 65.5979H34.0486C34.4146 65.5979 34.7656 65.4525 35.0244 65.1937C35.2832 64.9349 35.4285 64.584 35.4285 64.218V57.9839L34.0486 56.604H33.0303C32.6643 56.604 32.3133 56.7494 32.0546 57.0082C31.7958 57.2669 31.6504 57.6179 31.6504 57.9839V64.218C31.6504 64.584 31.7958 64.9349 32.0546 65.1937C32.3133 65.4525 32.6643 65.5979 33.0303 65.5979Z" fill="#A6A6A6"/>
<path d="M37.2105 52.7362C37.1579 55.1124 37.0051 56.6094 37.0051 56.6094C37.0051 56.6094 31.4126 58.7547 20.6094 59.0925C9.80794 58.753 4.2154 56.6094 4.2154 56.6094C4.2154 56.6094 4.06095 55.1056 4.00834 52.7362C3.99646 52.1795 3.98967 51.5752 3.99306 50.932C4.01173 45.2376 4.72968 36.4508 8.42805 30.254H32.7908C36.4908 36.4508 37.2037 45.2376 37.2275 50.932C37.2292 51.5684 37.2224 52.1795 37.2105 52.7362Z" fill="#DBDBDB"/>
<path d="M5.10108 38.221C4.93136 38.9084 4.76163 39.6213 4.63433 40.346C4.61834 40.4361 4.57838 40.5202 4.51865 40.5895C4.45891 40.6588 4.38162 40.7107 4.29488 40.7398H4.27281C4.05047 40.6295 3.81794 40.4937 3.76363 40.3885C3.6567 40.1746 4.12854 38.5588 4.31185 38.2991C4.49516 38.0394 5.10108 38.221 5.10108 38.221Z" fill="#A6A6A6"/>
<path d="M1.4362 37.116C1.48202 37.817 1.72134 38.5213 2.32218 38.927C2.88909 39.2803 3.49882 39.5598 4.13657 39.7586C4.42001 39.8571 4.54052 39.4073 4.26047 39.3106C3.76146 39.1442 3.27812 38.934 2.81608 38.6826C2.21355 38.3431 1.94538 37.8 1.89955 37.116C1.88088 36.819 1.41583 36.8173 1.4362 37.116Z" fill="#A6A6A6"/>
<path d="M3.12779 36.7072C3.12779 36.9963 3.04204 37.2789 2.88139 37.5193C2.72074 37.7596 2.49241 37.9469 2.22528 38.0575C1.95815 38.168 1.66424 38.1969 1.38071 38.1404C1.09719 38.0838 0.836807 37.9445 0.6325 37.7399C0.428193 37.5354 0.289147 37.2748 0.232952 36.9913C0.176757 36.7077 0.205939 36.4138 0.316806 36.1468C0.427672 35.8798 0.615242 35.6517 0.855784 35.4913C1.09633 35.3309 1.37903 35.2455 1.66813 35.2459C1.85996 35.2459 2.04991 35.2837 2.22711 35.3571C2.40432 35.4306 2.5653 35.5383 2.70087 35.674C2.83643 35.8097 2.94391 35.9708 3.01717 36.1481C3.09042 36.3254 3.12801 36.5154 3.12779 36.7072Z" fill="#A6A6A6"/>
<path d="M33.331 30.6918H7.89047C7.44238 30.6918 7.08426 29.8856 7.21155 29.5716C7.33885 29.2576 12.2694 26.929 20.6031 26.929C28.9367 26.929 33.8622 29.2593 33.9963 29.5716C34.1304 29.8839 33.7858 30.6918 33.331 30.6918Z" fill="#EBEBEB"/>
<path d="M10.536 51.2597C10.8264 50.0531 10.0836 48.8395 8.87694 48.5491C7.67029 48.2588 6.45673 49.0016 6.16637 50.2082C5.87601 51.4149 6.61881 52.6284 7.82546 52.9188C9.03211 53.2092 10.2457 52.4664 10.536 51.2597Z" fill="#A6A6A6"/>
<path d="M10.268 51.0476C10.4404 49.9892 9.72213 48.9915 8.66371 48.8191C7.60529 48.6467 6.60753 49.365 6.43516 50.4234C6.26278 51.4818 6.98107 52.4796 8.03948 52.652C9.0979 52.8243 10.0957 52.106 10.268 51.0476Z" fill="#EBEBEB"/>
<path d="M6.10277 46.2543C6.48975 46.0252 7.35876 47.1539 6.90219 47.5052C6.44562 47.8565 5.48666 46.6209 6.10277 46.2543Z" fill="#EBEBEB"/>
<path d="M33.4556 52.9041C34.6545 52.5833 35.3664 51.3513 35.0456 50.1524C34.7248 48.9535 33.4928 48.2417 32.2939 48.5625C31.095 48.8833 30.3831 50.1152 30.7039 51.3141C31.0247 52.5131 32.2567 53.2249 33.4556 52.9041Z" fill="#A6A6A6"/>
<path d="M33.1953 52.6491C34.2529 52.4719 34.9667 51.4709 34.7895 50.4133C34.6123 49.3557 33.6113 48.6419 32.5537 48.8191C31.496 48.9963 30.7823 49.9973 30.9595 51.0549C31.1367 52.1125 32.1377 52.8263 33.1953 52.6491Z" fill="#EBEBEB"/>
<path d="M35.1165 46.2543C34.7312 46.0252 33.8622 47.1539 34.3188 47.5052C34.7754 47.8565 35.7326 46.6209 35.1165 46.2543Z" fill="#EBEBEB"/>
<path d="M36.123 38.221C36.2928 38.9084 36.4625 39.6213 36.5881 40.346C36.6041 40.4361 36.6441 40.5202 36.7038 40.5895C36.7635 40.6588 36.8408 40.7107 36.9276 40.7398H36.9513C37.172 40.6295 37.4062 40.4937 37.4605 40.3885C37.5674 40.1746 37.0939 38.5588 36.9106 38.2991C36.7273 38.0394 36.123 38.221 36.123 38.221Z" fill="#A6A6A6"/>
<path d="M39.3217 37.116C39.2776 37.7949 39.0094 38.3465 38.4069 38.6826C37.9447 38.9337 37.4614 39.1439 36.9625 39.3106C36.6807 39.4073 36.8029 39.8571 37.0864 39.7586C37.724 39.5595 38.3337 39.28 38.9008 38.927C39.4999 38.523 39.7409 37.817 39.7868 37.116C39.8054 36.8173 39.3421 36.819 39.3217 37.116Z" fill="#A6A6A6"/>
<path d="M38.0918 36.7072C38.0918 36.9962 38.1775 37.2788 38.3381 37.5191C38.4987 37.7594 38.7269 37.9467 38.9939 38.0573C39.2609 38.1679 39.5548 38.1969 39.8383 38.1405C40.1217 38.0841 40.3821 37.9449 40.5865 37.7405C40.7909 37.5362 40.93 37.2758 40.9864 36.9923C41.0428 36.7088 41.0139 36.415 40.9033 36.148C40.7927 35.8809 40.6054 35.6527 40.365 35.4921C40.1247 35.3316 39.8422 35.2458 39.5532 35.2458C39.3612 35.2458 39.1712 35.2836 38.9939 35.3571C38.8166 35.4305 38.6555 35.5382 38.5198 35.6739C38.3841 35.8096 38.2765 35.9707 38.203 36.148C38.1296 36.3253 38.0918 36.5153 38.0918 36.7072Z" fill="#A6A6A6"/>
<path d="M37.0269 42.5966C35.0886 43.1906 26.7482 46.2695 21.4374 56.5618C21.3948 56.6454 21.33 56.7157 21.25 56.7648C21.1701 56.8139 21.0781 56.84 20.9842 56.8401H20.2391C20.1453 56.84 20.0533 56.8139 19.9733 56.7648C19.8933 56.7157 19.8285 56.6454 19.7859 56.5618C14.4735 46.2695 6.13303 43.1906 4.19474 42.5966C4.07946 42.5614 3.98038 42.4865 3.91511 42.3852C3.84985 42.2839 3.82263 42.1627 3.83831 42.0433V41.9974L3.86207 41.8158L3.94694 41.1624C3.95859 41.0718 3.99435 40.9861 4.05048 40.9142C4.10662 40.8422 4.18106 40.7866 4.26603 40.7533H4.28809C4.37483 40.7242 4.45213 40.6723 4.51186 40.603C4.5716 40.5337 4.61156 40.4496 4.62755 40.3595C4.75993 39.6348 4.91948 38.922 5.0943 38.2346C5.38284 37.1059 5.7172 36.0417 6.05156 35.0895C6.54023 33.6925 7.10688 32.3241 7.74884 30.9906C7.79059 30.9046 7.85572 30.832 7.93676 30.7813C8.01781 30.7306 8.1115 30.7037 8.20711 30.7037H33.0145C33.1104 30.7034 33.2045 30.7301 33.2858 30.7809C33.3672 30.8316 33.4326 30.9043 33.4745 30.9906C34.117 32.3238 34.6836 33.6923 35.1718 35.0895C35.5112 36.0417 35.8405 37.1059 36.129 38.2346C36.2988 38.922 36.4685 39.6348 36.5958 40.3595C36.6118 40.4496 36.6517 40.5337 36.7115 40.603C36.7712 40.6723 36.8485 40.7242 36.9352 40.7533H36.959C37.044 40.7866 37.1184 40.8422 37.1745 40.9142C37.2307 40.9861 37.2664 41.0718 37.2781 41.1624L37.3612 41.8158L37.385 41.9974V42.0433C37.4006 42.163 37.3731 42.2843 37.3076 42.3857C37.242 42.487 37.1425 42.5618 37.0269 42.5966Z" fill="#EBEBEB"/>
<path d="M37.3766 41.9975C36.5976 42.1791 34.2366 42.8207 31.3937 44.5231C28.2283 46.4172 23.8086 50.0409 20.6092 56.5873C17.4098 50.0409 12.9901 46.4172 9.8264 44.5231C6.98346 42.8258 4.62254 42.1791 3.8418 41.9975L3.86556 41.8159C4.64291 41.9856 7.03268 42.6408 9.91126 44.3618C13.0478 46.2288 17.403 49.7931 20.6041 56.1749C23.8103 49.7948 28.1672 46.2356 31.297 44.3618C34.1823 42.6408 36.5585 41.9856 37.3427 41.8159L37.3766 41.9975Z" fill="white"/>
<path d="M33.7755 31.622L7.20117 32.1685C7.4337 31.6373 7.62719 31.2316 7.74769 30.9804C7.78944 30.8944 7.85457 30.8219 7.93561 30.7712C8.01666 30.7205 8.11035 30.6936 8.20596 30.6936H33.0151C33.1107 30.6936 33.2044 30.7205 33.2854 30.7712C33.3665 30.8219 33.4316 30.8944 33.4733 30.9804C33.5497 31.1366 33.6532 31.3538 33.7755 31.622Z" fill="#DBDBDB"/>
<path d="M20.6091 51.1288C20.1476 51.1288 19.6964 50.9919 19.3126 50.7355C18.9288 50.4791 18.6297 50.1146 18.453 49.6882C18.2764 49.2617 18.2302 48.7925 18.3202 48.3398C18.4103 47.8871 18.6326 47.4712 18.9589 47.1448C19.2853 46.8185 19.7012 46.5962 20.1539 46.5061C20.6066 46.4161 21.0758 46.4623 21.5022 46.639C21.9287 46.8156 22.2932 47.1147 22.5496 47.4985C22.806 47.8823 22.9429 48.3335 22.9429 48.7951C22.942 49.4137 22.6958 50.0068 22.2584 50.4443C21.8209 50.8818 21.2278 51.1279 20.6091 51.1288ZM20.6091 46.7397C20.2026 46.7397 19.8052 46.8602 19.4672 47.0861C19.1292 47.3119 18.8658 47.6329 18.7102 48.0085C18.5546 48.3841 18.5139 48.7973 18.5932 49.1961C18.6725 49.5948 18.8683 49.961 19.1558 50.2485C19.4432 50.5359 19.8095 50.7317 20.2082 50.811C20.6069 50.8903 21.0201 50.8496 21.3957 50.694C21.7713 50.5384 22.0923 50.275 22.3182 49.937C22.544 49.599 22.6646 49.2016 22.6646 48.7951C22.6641 48.2501 22.4474 47.7275 22.062 47.3422C21.6767 46.9568 21.1541 46.7401 20.6091 46.7397Z" fill="white"/>
<path d="M21.1227 51.0455L20.622 48.3078L20.2486 51.0421L19.0215 47.1944L19.288 47.1095L20.1383 49.781L20.5813 46.5426L21.1618 49.7046L21.8101 47.0212L22.0817 47.0857L21.1227 51.0455Z" fill="white"/>
<path d="M19.959 32.5757V37.7609C19.959 37.9977 19.865 38.2248 19.6975 38.3922C19.5301 38.5596 19.303 38.6537 19.0663 38.6537H7.57909C7.43723 38.6544 7.29724 38.6212 7.17079 38.5569C7.04433 38.4926 6.93505 38.399 6.85205 38.284C6.76904 38.1689 6.7147 38.0357 6.69355 37.8954C6.6724 37.7552 6.68505 37.6119 6.73045 37.4774L6.7644 37.3773L8.46168 32.2855C8.52099 32.1075 8.63495 31.9528 8.78733 31.8434C8.93971 31.734 9.12273 31.6755 9.31032 31.6762H19.0578C19.1206 31.6759 19.1832 31.6828 19.2445 31.6965C19.4445 31.7386 19.6239 31.8484 19.7525 32.0073C19.8811 32.1662 19.951 32.3645 19.9505 32.5689L19.959 32.5757Z" fill="#C7C7C7"/>
<g opacity="0.3">
<path d="M18.1517 31.6833L11.1826 38.6541H9.02539L15.9978 31.6833H18.1517Z" fill="white"/>
<path d="M19.9602 36.0317V37.7613C19.9602 37.998 19.8661 38.2251 19.6987 38.3925C19.5313 38.56 19.3042 38.654 19.0674 38.654H17.3379L19.9602 36.0317Z" fill="white"/>
<path d="M19.9492 32.4403L13.7338 38.654H12.3047L19.2533 31.6952C19.4315 31.7335 19.5937 31.8254 19.7181 31.9586C19.8425 32.0918 19.9232 32.2599 19.9492 32.4403Z" fill="white"/>
<path d="M13.1775 31.6833L6.75674 38.1058C6.67275 37.9063 6.6649 37.6828 6.73468 37.4779L6.76862 37.3777L12.463 31.6833H13.1775Z" fill="white"/>
</g>
<path d="M33.6397 38.6536H22.1525C21.9159 38.6531 21.6891 38.5589 21.5217 38.3916C21.3544 38.2243 21.2602 37.9975 21.2598 37.7608V32.5756C21.2602 32.339 21.3544 32.1122 21.5217 31.9448C21.6891 31.7775 21.9159 31.6833 22.1525 31.6829H31.9017C32.0892 31.6827 32.2719 31.7414 32.4242 31.8508C32.5765 31.9601 32.6906 32.1145 32.7503 32.2922L33.2103 33.667L33.5701 34.738L34.2083 36.644L34.4884 37.4774C34.533 37.6118 34.545 37.7548 34.5235 37.8948C34.5021 38.0348 34.4476 38.1676 34.3648 38.2825C34.2819 38.3973 34.173 38.4908 34.0469 38.5554C33.9209 38.6199 33.7813 38.6535 33.6397 38.6536Z" fill="#C7C7C7"/>
<g opacity="0.3">
<path d="M23.8634 31.6833L21.2598 34.287V32.5761C21.2602 32.3395 21.3544 32.1127 21.5217 31.9453C21.6891 31.778 21.9159 31.6838 22.1525 31.6833H23.8634Z" fill="white"/>
<path d="M33.6397 38.6541H32.1953L34.2066 36.6445L34.4866 37.4779C34.5312 37.6122 34.5433 37.7551 34.5219 37.8949C34.5005 38.0347 34.4462 38.1675 34.3636 38.2823C34.2809 38.3971 34.1722 38.4907 34.0464 38.5553C33.9205 38.6199 33.7812 38.6538 33.6397 38.6541Z" fill="white"/>
<path d="M29.7363 31.6833L22.7656 38.6541H22.1529C21.9344 38.6545 21.7234 38.5741 21.5605 38.4283L28.3055 31.6833H29.7363Z" fill="white"/>
<path d="M33.5688 34.7386L29.6532 38.6542H28.2207L33.209 33.6676L33.5688 34.7386Z" fill="white"/>
<path d="M31.3374 31.6833L24.3683 38.6541H23.6504L30.6228 31.6833H31.3374Z" fill="white"/>
</g>
<path d="M37.4595 56.1747H3.76172V59.5132H37.4595V56.1747Z" fill="#C7C7C7"/>
<path d="M59.2216 62.1425C58.7939 61.5892 58.3068 60.9798 58.3373 60.2466C58.3645 59.5677 58.5919 58.8175 59.2131 58.4577C59.3913 58.3542 59.5203 58.3185 59.578 58.5476C59.6646 58.8956 59.5169 59.3182 59.4422 59.656C59.3409 60.0906 59.2807 60.5339 59.2623 60.9799C59.2521 61.2921 59.2742 61.6061 59.2725 61.9201C59.2725 61.9592 59.2725 61.9982 59.2725 62.0373V62.0916L59.2827 62.1085C59.2855 62.1134 59.287 62.119 59.287 62.1247C59.287 62.1303 59.2855 62.1359 59.2827 62.1408V62.151C59.2788 62.1559 59.2738 62.1597 59.268 62.1621C59.2622 62.1644 59.2559 62.1652 59.2497 62.1643C59.2435 62.1635 59.2376 62.161 59.2327 62.1572C59.2278 62.1533 59.2239 62.1483 59.2216 62.1425Z" fill="#FF42B3"/>
<path d="M59.2804 62.1426C58.9308 61.6334 58.5218 61.1242 58.5727 60.4742C58.603 60.1748 58.6803 59.8821 58.8018 59.6069C58.8544 59.483 59.0089 59.1079 59.1718 59.0977C59.4671 59.0824 59.0734 60.2671 59.0547 60.4063C58.9956 60.9208 59.071 61.4419 59.2737 61.9186C59.2737 61.9576 59.2737 61.9966 59.2737 62.0357C59.1243 61.7019 59.0309 61.3458 58.997 60.9817C58.9529 60.4725 59.1243 60.0549 59.2159 59.5678C59.2363 59.4626 59.3178 59.1299 59.1379 59.1571C59.0191 59.1741 58.8646 59.539 58.8324 59.6171C58.7179 59.8782 58.6435 60.1552 58.6117 60.4385C58.5506 61.0869 58.9512 61.6131 59.2906 62.1358L59.2804 62.1426Z" fill="white"/>
<path d="M59.1024 62.7043L59.0278 62.7365C59.0249 62.7382 59.0217 62.739 59.0184 62.739C59.0151 62.739 59.0119 62.7382 59.0091 62.7365C59.0032 62.7321 58.999 62.7259 58.9971 62.7188C58.9953 62.7117 58.9959 62.7042 58.9989 62.6975C59.0024 62.6929 59.0071 62.6893 59.0125 62.6873H59.0227H59.0464C59.3485 62.3156 59.7118 61.9965 60.0105 61.6197C60.3092 61.2429 60.557 60.8831 60.871 60.547C61.0679 60.3349 62.11 59.3437 62.3324 59.9564C62.4308 60.2279 62.2152 60.6183 62.0812 60.8458C61.8978 61.1465 61.6621 61.4121 61.3853 61.6299C60.7098 62.1561 59.8815 62.3597 59.1024 62.7043Z" fill="#FF42B3"/>
<path d="M60.6593 61.8305C60.931 61.6507 61.1756 61.4329 61.3857 61.1839C61.457 61.0973 61.8032 60.6747 61.6895 60.544C61.6165 60.4557 61.4213 60.5712 61.3501 60.6068C61.0683 60.7596 60.8663 61.0328 60.6508 61.2637C60.213 61.7304 59.7416 62.1643 59.2403 62.5621C59.2047 62.5807 59.1673 62.5994 59.1334 62.6198L59.0434 62.6673L59.0129 62.6843L58.9891 62.6979C58.9861 62.7045 58.9855 62.7121 58.9874 62.7192C58.9892 62.7263 58.9934 62.7325 58.9993 62.7369C59.0214 62.7233 59.0451 62.7114 59.0689 62.6995L59.018 62.7386L59.0791 62.7097H59.0927L59.1775 62.6452C59.687 62.4029 60.1817 62.1309 60.6593 61.8305ZM59.3676 62.4993C59.6596 62.2667 59.9413 62.0189 60.2163 61.7593C60.4335 61.5505 60.6406 61.3332 60.8426 61.1092C60.9542 60.9801 61.0756 60.8598 61.2058 60.7494C61.3076 60.6696 61.715 60.4099 61.6131 60.7799C61.5418 61.0498 61.1922 61.3553 60.9902 61.5267C60.7638 61.7187 60.5201 61.8891 60.2621 62.0359C59.9668 62.1972 59.6647 62.3465 59.3676 62.4993Z" fill="white"/>
<path d="M57.7656 64.1284L57.7469 64.1097C57.4074 63.5717 56.8558 62.9216 56.8881 62.2427C56.9118 61.742 57.1868 61.0699 57.6841 60.8645C58.2459 60.6337 58.1373 61.6945 58.122 61.9661C58.0547 62.6923 57.947 63.4142 57.7995 64.1284V64.142C57.7893 64.1454 57.7757 64.1386 57.7656 64.1284Z" fill="#FF42B3"/>
<path d="M57.7932 64.1284C57.7932 64.086 57.7932 64.0419 57.7932 63.9994C57.7627 63.5038 57.7542 63.0065 57.7694 62.5109C57.7694 62.3853 57.8713 61.4281 57.6235 61.4739C57.4724 61.501 57.3825 61.8592 57.3502 61.9831C57.2916 62.1933 57.2681 62.4118 57.2806 62.6297C57.3146 63.1304 57.5692 63.5819 57.7474 64.0487C57.7576 64.069 57.7644 64.0911 57.7728 64.1132C57.7719 64.1182 57.7719 64.1234 57.7728 64.1284C57.7762 64.1386 57.7881 64.1454 57.7932 64.1284ZM57.3502 62.8911C57.3067 62.672 57.3004 62.447 57.3315 62.2258C57.3519 62.0798 57.4402 61.5469 57.6269 61.5469C57.7253 61.5469 57.7151 61.6029 57.7355 61.7166C57.744 61.7675 57.7474 61.8201 57.7508 61.8711C57.7508 62 57.7508 62.1273 57.7406 62.2546C57.7287 62.4787 57.7236 62.7027 57.7219 62.9335C57.7219 63.3019 57.7321 63.6685 57.7576 64.0351C57.6286 63.6464 57.43 63.29 57.3502 62.8979V62.8911Z" fill="white"/>
<path d="M59.5166 64.3067C58.8253 64.5993 58.0624 64.6791 57.3255 64.5358H57.3119C57.3068 64.5323 57.3032 64.5272 57.3016 64.5213C57.3001 64.5153 57.3007 64.5091 57.3034 64.5036C57.3053 64.4971 57.3094 64.4916 57.315 64.4879C57.3206 64.4842 57.3273 64.4825 57.3339 64.4832L57.3798 64.4917C58.1469 64.0691 58.9158 63.66 59.6745 63.2238C59.8442 63.122 61.0069 62.4889 61.068 62.9387C61.107 63.217 60.6827 63.5429 60.4994 63.7007C60.2043 63.9512 59.8729 64.1555 59.5166 64.3067Z" fill="#FF42B3"/>
<path d="M60.3245 63.4394C60.3721 63.38 60.4094 63.3053 60.3245 63.2697C60.1548 63.2001 59.6202 63.509 59.4674 63.587C58.836 63.9095 58.1928 64.1675 57.5376 64.4357L57.3679 64.5019H57.3034C57.3007 64.5074 57.3001 64.5137 57.3016 64.5196C57.3032 64.5255 57.3068 64.5307 57.3119 64.5341H57.3288H57.4171C57.8816 64.5371 58.3437 64.4678 58.7868 64.3288C59.0667 64.2391 59.3368 64.1214 59.593 63.9774C59.8289 63.8348 60.1599 63.6583 60.3245 63.4394ZM57.4544 64.4951H57.412L57.4816 64.4713C58.0036 64.2998 58.5138 64.0946 59.0092 63.8569C59.2587 63.7347 59.4997 63.5972 59.7526 63.4852C59.8612 63.436 60.1599 63.2917 60.2617 63.3375C60.3636 63.3834 60.2617 63.4564 60.2006 63.5073C60.1395 63.5582 60.0835 63.6006 60.0445 63.6295C59.2949 64.1856 58.3878 64.4887 57.4544 64.4951Z" fill="white"/>
<path d="M55.8657 65.7153L55.791 65.6117L56.0609 65.4081C56.4207 65.1314 56.7771 64.8514 57.1302 64.5594C57.3321 64.3897 57.529 64.2302 57.7191 64.0604L57.7395 64.0435L57.7853 64.001L57.8362 63.9535C58.2692 63.5709 58.6393 63.1224 58.9327 62.6245C59.0294 62.4548 59.116 62.2851 59.2008 62.1069L59.2246 62.056V62.0424C59.2331 62.0254 59.2399 62.0084 59.2484 61.9898L59.267 61.9507C59.5165 61.4076 59.7219 60.8424 59.946 60.2908C60.0088 60.1329 60.0716 59.9734 60.136 59.8155C60.139 59.8061 60.1429 59.797 60.1479 59.7884C60.1517 59.7762 60.1562 59.7643 60.1615 59.7527C60.4416 59.0552 60.7301 58.3593 60.9932 57.6549C61.0017 57.6277 61.0407 57.6549 61.0305 57.6736C60.8608 58.1437 60.7012 58.619 60.5383 59.0942C60.5162 59.157 60.4942 59.2198 60.4738 59.2826L60.3431 59.6577C60.2566 59.9072 60.1734 60.155 60.0749 60.4028C59.8314 61.1081 59.5452 61.7979 59.2178 62.4684L59.138 62.6144L59.0871 62.7043L59.026 62.8095C58.6587 63.3959 58.191 63.9129 57.6444 64.3371L57.5324 64.4287L57.4798 64.4712L57.4527 64.4932L57.4153 64.5221L57.3882 64.5442L57.2897 64.6205C56.9316 64.9006 56.5701 65.1755 56.2085 65.4488C56.0948 65.5371 55.9811 65.6253 55.8657 65.7153Z" fill="#FF42B3"/>
<path d="M60.3106 57.8197C60.4803 57.2613 61.0149 56.3312 61.7244 56.4619C61.8582 56.4811 61.9803 56.549 62.0671 56.6527C62.1539 56.7564 62.1993 56.8886 62.1945 57.0237C62.1945 57.3632 61.9637 57.6755 61.7651 57.9266C61.2356 58.6056 60.6466 59.2166 60.1646 59.926C60.1646 59.926 60.1222 59.9871 60.112 60.0024C60.1018 60.0177 60.0814 60.0024 60.0899 59.9854L60.1374 59.9159C60.1408 59.2217 60.1001 58.4817 60.3106 57.8197Z" fill="#FF42B3"/>
<path d="M60.1657 59.9242V59.9089C60.2543 59.6958 60.3558 59.4884 60.4695 59.2877C60.7121 58.8761 60.9791 58.4794 61.269 58.0996C61.3793 57.9519 61.9343 57.2425 61.4743 57.1933C61.2808 57.1729 61.0823 57.3375 60.9516 57.458C60.7379 57.6524 60.5648 57.8872 60.4424 58.1488C60.223 58.671 60.1182 59.2341 60.1352 59.8003C60.1352 59.8257 60.1352 59.8512 60.1352 59.8766L60.125 59.9004V59.9157C60.125 59.9157 60.125 59.9157 60.125 59.9259C60.1256 59.9286 60.1267 59.9312 60.1284 59.9334C60.13 59.9357 60.132 59.9376 60.1344 59.939C60.1368 59.9404 60.1395 59.9414 60.1422 59.9417C60.145 59.9421 60.1478 59.9419 60.1505 59.9411C60.1547 59.9407 60.1586 59.9387 60.1614 59.9356C60.1642 59.9325 60.1658 59.9284 60.1657 59.9242ZM60.1657 59.7544C60.1712 59.2873 60.2479 58.8237 60.3932 58.3796C60.4726 58.1491 60.5871 57.9321 60.7326 57.7364C60.7977 57.6497 60.8704 57.5691 60.9499 57.4954C61.008 57.4389 61.071 57.3878 61.1383 57.3426C61.2859 57.2425 61.4862 57.1899 61.5626 57.2645C61.639 57.3392 61.622 57.4343 61.5507 57.5921C61.5264 57.6448 61.4986 57.6958 61.4675 57.7449C61.3929 57.8688 61.3063 57.9859 61.2214 58.1013C61.0772 58.2948 60.9363 58.4866 60.8005 58.6852C60.7089 58.8192 60.6206 58.9567 60.5391 59.0959C60.3953 59.3352 60.2683 59.5841 60.1589 59.841C60.1606 59.8155 60.1623 59.7867 60.164 59.7578L60.1657 59.7544Z" fill="white"/>
<path d="M12.3216 61.2429C12.6611 61.562 12.9904 61.9032 13.3111 62.246C13.4911 62.4412 13.671 62.6381 13.8526 62.8333C14.0342 63.0285 14.2413 63.2881 14.5315 63.3934L14.5654 63.4137C14.5671 63.4197 14.5671 63.426 14.5656 63.4319C14.5641 63.4379 14.561 63.4434 14.5567 63.4478C14.5525 63.4523 14.5471 63.4556 14.5412 63.4573C14.5353 63.4591 14.529 63.4593 14.523 63.4579L14.5043 63.4494C14.4175 63.44 14.3321 63.4206 14.2497 63.3917C14.0198 63.3366 13.7931 63.2686 13.5708 63.188C13.1114 63.0259 12.6741 62.8069 12.269 62.5362C11.9071 62.2932 11.5794 62.0026 11.2948 61.6723C11.0673 61.4076 10.7245 61.0189 10.6617 60.654C10.604 60.3315 11.0198 60.396 11.2116 60.452C11.6325 60.603 11.9958 60.9493 12.3216 61.2429Z" fill="#FF42B3"/>
<path d="M11.274 61.0156C11.1756 61.153 11.5507 61.5723 11.7085 61.7607C11.9585 62.0551 12.2435 62.3178 12.5572 62.5431C13.1209 62.9444 13.7488 63.2469 14.414 63.4376L14.4938 63.4613H14.5124C14.5184 63.463 14.5247 63.463 14.5307 63.4615C14.5366 63.46 14.5421 63.4569 14.5466 63.4527C14.551 63.4484 14.5543 63.443 14.556 63.4371C14.5578 63.4312 14.558 63.4249 14.5566 63.4189C14.5023 63.3935 14.4513 63.368 14.4021 63.3408C14.3529 63.3137 14.3105 63.2899 14.268 63.2628C13.7956 62.9557 13.357 62.5995 12.9594 62.2003C12.4842 61.7624 11.4064 60.8323 11.274 61.0156ZM14.3427 63.3595C14.4106 63.3968 14.4785 63.4308 14.5464 63.4613L14.3767 63.4087C13.7963 63.2231 13.2436 62.9599 12.7337 62.6263C12.2918 62.3369 11.9031 61.9734 11.5846 61.5519C11.5388 61.4891 11.2452 61.1208 11.3165 61.0427C11.3878 60.9646 11.7187 61.2124 11.7255 61.2226C11.7951 61.2668 11.863 61.316 11.9309 61.3652C12.0684 61.467 12.2008 61.5757 12.3314 61.686C12.6132 61.927 12.8814 62.185 13.1546 62.4345C13.5131 62.7883 13.9118 63.0987 14.3427 63.3595Z" fill="white"/>
<path d="M14.9249 59.8225C15.2389 60.4302 15.3135 61.1277 15.322 61.8033C15.322 62.1631 15.322 62.5246 15.3102 62.8861C15.29 63.2084 15.302 63.5319 15.3458 63.8519C15.345 63.866 15.345 63.8802 15.3458 63.8943C15.3643 63.9827 15.3927 64.0687 15.4307 64.1506C15.4323 64.1531 15.4332 64.1561 15.4332 64.1591C15.4332 64.1621 15.4323 64.1651 15.4307 64.1676L15.4459 64.1913C15.4459 64.1913 15.4459 64.2049 15.4374 64.1998C15.4291 64.1935 15.4212 64.1867 15.4137 64.1794C15.4117 64.1799 15.4096 64.18 15.4075 64.1797C15.4055 64.1794 15.4036 64.1786 15.4018 64.1775C15.4001 64.1764 15.3986 64.1749 15.3974 64.1732C15.3962 64.1715 15.3954 64.1696 15.395 64.1676V64.1574L15.373 64.137C14.8451 63.6516 14.5498 62.8284 14.3546 62.1665C14.1286 61.5114 14.0875 60.8067 14.2358 60.1297C14.2799 59.96 14.3546 59.5578 14.56 59.5001C14.7653 59.4423 14.8587 59.6935 14.9249 59.8225Z" fill="#FF42B3"/>
<path d="M14.6487 60.2249C14.4416 60.2588 14.479 60.8274 14.4909 60.9649C14.5178 61.3848 14.5809 61.8016 14.6793 62.2107C14.8049 62.8786 15.034 63.5228 15.3582 64.1202C15.3585 64.1294 15.3613 64.1385 15.3664 64.1462C15.3715 64.154 15.3786 64.1603 15.387 64.1643C15.387 64.1643 15.387 64.1643 15.387 64.1745C15.3882 64.1787 15.391 64.1823 15.3948 64.1845C15.3986 64.1867 15.4031 64.1874 15.4074 64.1863C15.4064 64.1756 15.4064 64.1648 15.4074 64.1541C15.3853 64.0709 15.365 63.9844 15.348 63.9029C15.348 63.8876 15.348 63.8741 15.348 63.8605C15.2478 63.2676 15.186 62.6689 15.163 62.0681C15.1385 61.6502 15.0754 61.2354 14.9746 60.8291C14.944 60.7171 14.8218 60.1876 14.6487 60.2249ZM14.8337 60.5253C15.1172 61.1805 15.1087 61.9578 15.1562 62.6571C15.1758 63.1302 15.2412 63.6003 15.3514 64.0608C15.0744 63.5097 14.8723 62.924 14.7505 62.3193C14.6679 61.9782 14.6055 61.6325 14.5638 61.284C14.5395 61.0955 14.5287 60.9055 14.5316 60.7154C14.5338 60.601 14.5486 60.4872 14.5757 60.376C14.647 60.1638 14.7845 60.4048 14.8337 60.5168V60.5253Z" fill="white"/>
<path d="M16.5609 65.0737C16.5637 65.0795 16.5652 65.0859 16.5652 65.0923C16.5652 65.0988 16.5637 65.1052 16.5609 65.111H16.5745C16.5773 65.1114 16.5799 65.1129 16.5818 65.115C16.5836 65.1172 16.5847 65.12 16.5846 65.1229C16.5846 65.1229 16.5846 65.1331 16.5761 65.1348C15.7632 65.2621 14.8602 65.3045 14.0608 65.0822C13.7224 64.9918 13.4009 64.8473 13.1086 64.6544C12.91 64.5204 12.5095 64.2488 12.4874 63.9755C12.4416 63.4358 13.8707 63.9942 14.0862 64.0808C14.4783 64.2352 14.8551 64.4202 15.2455 64.5899C15.6698 64.7597 16.1077 64.9124 16.5456 65.0601C16.5489 65.0612 16.552 65.0629 16.5547 65.0653C16.5573 65.0676 16.5594 65.0705 16.5609 65.0737Z" fill="#FF42B3"/>
<path d="M16.5603 65.074L16.4296 65.0604C15.7186 64.9819 15.0241 64.7936 14.3708 64.502C14.0474 64.3463 13.7112 64.2186 13.3661 64.1201C13.2795 64.0997 12.9604 63.9979 13.0113 64.2033C13.0385 64.3085 13.5612 64.6106 13.7038 64.6768C14.0288 64.8255 14.3708 64.9338 14.7222 64.9993C15.3143 65.1161 15.9188 65.1578 16.5213 65.1232H16.5722C16.5722 65.1232 16.5722 65.1113 16.562 65.113H16.5485C16.5538 65.1082 16.5578 65.1021 16.5599 65.0952C16.562 65.0883 16.5622 65.081 16.5603 65.074ZM15.0328 65.0112C14.6791 64.9629 14.3316 64.8776 13.9958 64.7566C13.863 64.7077 13.7332 64.651 13.6071 64.5869C13.5071 64.538 13.4112 64.4812 13.3202 64.4171C13.0996 64.2576 13.0555 64.1999 13.0741 64.1575C13.0928 64.115 13.1318 64.1167 13.31 64.1456C13.426 64.1672 13.5396 64.1996 13.6495 64.2423C13.8057 64.3017 13.9584 64.3662 14.1095 64.4324C14.415 64.5631 14.7171 64.6989 15.0311 64.8075C15.4796 64.9651 15.947 65.0627 16.4212 65.0977C15.9568 65.108 15.4923 65.0791 15.0328 65.0112Z" fill="white"/>
<path d="M16.4709 62.7401C16.6645 62.962 16.808 63.2231 16.8918 63.5055C17.0768 64.0588 17.1413 64.6427 17.2873 65.2028C17.3093 65.2877 17.3331 65.3725 17.3602 65.4557C17.3602 65.4642 17.4179 65.5558 17.4112 65.5507C17.4044 65.5457 17.384 65.5236 17.3382 65.4761C17.1192 65.2452 16.4641 64.5341 16.2129 64.0537C16.0488 63.7565 15.9223 63.4401 15.8361 63.1118C15.8004 62.9556 15.7342 62.6026 15.8887 62.4838C16.0432 62.365 16.3707 62.628 16.4709 62.7401Z" fill="#FF42B3"/>
<path d="M16.1448 62.8759C15.9276 62.9675 16.3773 63.9231 16.4334 64.0487C16.6427 64.5144 16.9127 64.9504 17.2362 65.3454C17.2718 65.3912 17.3074 65.4354 17.3448 65.4795L17.4178 65.5559C17.4178 65.5559 17.3702 65.4676 17.3652 65.4574L17.3533 65.415C17.3312 65.3454 17.3125 65.2758 17.2956 65.2079C17.1513 64.8294 17.0155 64.4493 16.8645 64.0742C16.7591 63.8024 16.632 63.5396 16.4843 63.2883C16.4486 63.2323 16.2399 62.8368 16.1448 62.8759ZM16.323 63.0745C16.8101 63.772 16.9867 64.6139 17.3074 65.3878L17.3227 65.4269C17.3108 65.4099 17.2956 65.3929 17.2837 65.3743C17.0242 65.0418 16.7969 64.6855 16.6048 64.3101C16.4891 64.0809 16.3871 63.8452 16.2993 63.604C16.2447 63.4738 16.1993 63.34 16.1635 63.2034C16.1499 63.144 16.1211 62.9777 16.1635 62.9573C16.2059 62.937 16.2908 63.0286 16.323 63.0745Z" fill="white"/>
<path d="M12.2602 57.2529C13.0273 58.531 12.637 60.1723 13.3159 61.4961C13.3362 61.5369 13.3583 61.5759 13.3804 61.6166C13.3827 61.6205 13.3839 61.625 13.3841 61.6295C13.3842 61.634 13.3833 61.6385 13.3812 61.6425C13.3792 61.6466 13.3762 61.6501 13.3725 61.6526C13.3688 61.6552 13.3645 61.6569 13.36 61.6574C13.3559 61.6573 13.3518 61.6562 13.3482 61.6541C13.3447 61.6521 13.3417 61.6491 13.3396 61.6455L13.3244 61.6166C12.7184 61.0192 12.2246 60.3179 11.8664 59.546C11.5524 58.901 11.3453 58.178 11.4523 57.4566C11.4794 57.2869 11.5185 56.9254 11.734 56.8575C11.9496 56.7896 12.1668 57.0951 12.2602 57.2529Z" fill="#FF42B3"/>
<path d="M11.9958 57.7213C11.9058 57.7519 11.8939 57.891 11.8837 57.9572C11.8586 58.1383 11.8546 58.3217 11.8719 58.5037C11.9107 58.8765 12.0045 59.2414 12.1502 59.5866C12.3813 60.1875 12.6857 60.7576 13.0566 61.2839C13.1414 61.401 13.2263 61.513 13.3264 61.6233L13.3621 61.6641C13.3665 61.6634 13.3708 61.6618 13.3745 61.6592C13.3782 61.6566 13.3812 61.6532 13.3833 61.6493C13.3855 61.6453 13.3867 61.6409 13.3868 61.6364C13.387 61.6319 13.386 61.6274 13.3841 61.6233C13.3604 61.5843 13.34 61.547 13.3196 61.5079V61.4978C13.1657 61.2441 13.0361 60.9764 12.9327 60.6983C12.7907 60.2597 12.6773 59.8124 12.5932 59.3592C12.5457 59.1759 12.3047 57.6212 11.9958 57.7213ZM12.1977 57.9827C12.3309 58.329 12.4265 58.6886 12.4829 59.0554C12.5644 59.4169 12.6407 59.7801 12.7273 60.1399C12.7956 60.426 12.8875 60.7059 13.0022 60.9767C13.0961 61.2024 13.2097 61.4193 13.3417 61.625C13.1897 61.438 13.0491 61.2419 12.9208 61.0378C12.9208 61.0378 12.9208 61.0378 12.9208 61.0293C12.6971 60.6628 12.497 60.2824 12.3216 59.8904C12.3213 59.8859 12.3213 59.8814 12.3216 59.8769C12.158 59.5356 12.0355 59.1761 11.9567 58.8059C11.9168 58.6042 11.8998 58.3987 11.9058 58.1932C11.9177 57.9606 11.9499 57.7739 12.0297 57.7705C12.0772 57.7688 12.1519 57.8842 12.1977 57.9827Z" fill="white"/>
<path d="M12.3552 59.875C12.5656 60.245 12.7846 60.6116 13.0035 60.9765L13.3141 61.4857V61.4959L13.4261 61.6809C13.747 62.258 14.1142 62.808 14.5243 63.3255C14.7527 63.5861 15.005 63.8248 15.2779 64.0384L15.361 64.1063L15.4069 64.1402L15.4323 64.1606C15.6699 64.3439 15.9177 64.5153 16.1588 64.6817C16.4982 64.9125 16.8377 65.1196 17.1958 65.3232L17.228 65.3402C17.2433 65.3508 17.2591 65.3605 17.2756 65.3691L17.2993 65.3826L17.3452 65.4098C17.4572 65.4743 17.5709 65.5405 17.6846 65.6084L17.6116 65.7102C17.2422 65.5445 16.8859 65.3511 16.5457 65.1314C16.5383 65.1279 16.5315 65.1234 16.5254 65.1179C16.4914 65.0975 16.4575 65.0771 16.4252 65.0551C16.393 65.033 16.3438 65.0025 16.303 64.9753L16.0145 64.7818C15.4464 64.415 14.924 63.982 14.4581 63.4919L14.436 63.4494L14.4207 63.4308L14.3936 63.4019L14.3529 63.3527C14.3291 63.3238 14.3053 63.2933 14.2833 63.2627L14.2629 63.2373C13.911 62.7508 13.5934 62.2404 13.3124 61.7097C13.2581 61.6164 13.2055 61.5213 13.1529 61.428L13.0663 61.2701L12.9373 61.0291C12.9373 61.0291 12.9373 61.0291 12.9373 61.0206C12.7354 60.6421 12.5419 60.2603 12.3382 59.8818C12.3161 59.8733 12.345 59.858 12.3552 59.875Z" fill="#FF42B3"/>
<path d="M0 65.6574L9.12457 65.6166L18.2508 65.6014L36.5 65.5725L54.7491 65.6014L63.8754 65.6166L72.9999 65.6574L63.8754 65.6998L54.7491 65.7151L36.5 65.7422L18.2508 65.7151L9.12457 65.6998L0 65.6574Z" fill="#263238"/>
<path d="M58.2382 8.88847C58.0977 8.81658 57.9525 8.7542 57.8037 8.70177C57.6513 8.64477 57.4921 8.60824 57.3301 8.59314C57.2803 8.58941 57.2302 8.59517 57.1825 8.61011C57.167 8.6151 57.1522 8.62194 57.1383 8.63048L57.1095 8.65255C57.0891 8.66612 57.0755 8.6797 57.0586 8.69328C56.9988 8.74657 56.9421 8.80324 56.8888 8.86301C56.7819 8.98182 56.6868 9.10742 56.5918 9.23641L56.7106 9.19398C56.5516 9.14997 56.3901 9.11596 56.2269 9.09214C56.1431 9.08046 56.0586 9.07479 55.974 9.07517C55.9294 9.07184 55.8845 9.07184 55.8399 9.07517C55.8152 9.08 55.7909 9.08623 55.7669 9.09384C55.7422 9.10306 55.7184 9.11442 55.6956 9.12778C55.6234 9.18317 55.5604 9.24962 55.5089 9.32467C55.4574 9.38909 55.4098 9.45653 55.3664 9.52664C55.2805 9.66452 55.205 9.80862 55.1406 9.95775C55.2459 9.83385 55.346 9.70825 55.4529 9.59114C55.5055 9.53174 55.5582 9.47403 55.6142 9.42141C55.664 9.36925 55.7212 9.32465 55.7839 9.28902C55.8445 9.26869 55.9089 9.26231 55.9723 9.27035C56.0448 9.27775 56.1168 9.28965 56.1878 9.306C56.3406 9.33315 56.4951 9.37049 56.6444 9.41123L56.7191 9.4316L56.7615 9.37049C56.8481 9.24489 56.9431 9.12269 57.0365 9.00388C57.084 8.94448 57.1332 8.88677 57.1825 8.83415L57.2198 8.79851L57.2368 8.78493C57.2633 8.7745 57.2914 8.76876 57.3199 8.76796C57.4704 8.768 57.6205 8.78278 57.768 8.81209C57.931 8.82736 58.0837 8.85961 58.2382 8.88847Z" fill="#263238"/>
<path d="M56.5264 13.5033C56.3406 13.3578 56.1456 13.2246 55.9425 13.1044C55.7353 12.9752 55.5115 12.8747 55.2772 12.8057C55.2056 12.7851 55.1307 12.7782 55.0566 12.7853C55.0316 12.7889 55.0072 12.7952 54.9836 12.804L54.9361 12.8261C54.9063 12.8402 54.8774 12.856 54.8495 12.8736C54.7437 12.9359 54.6417 13.0045 54.544 13.079C54.3522 13.2232 54.1774 13.3794 53.9992 13.5406L54.1842 13.5135C53.9647 13.4015 53.7378 13.3046 53.5053 13.2232C53.3858 13.1823 53.2639 13.1488 53.1403 13.1231C53.0742 13.11 53.0073 13.1015 52.9401 13.0976C52.9028 13.0952 52.8653 13.0952 52.828 13.0976C52.789 13.1048 52.7505 13.1145 52.7126 13.1265C52.589 13.1795 52.4744 13.2517 52.3732 13.3403C52.2764 13.4218 52.1899 13.5101 52.105 13.5949C51.9379 13.772 51.7852 13.9621 51.6484 14.1635C51.8368 14.0108 52.0201 13.8563 52.2119 13.7154C52.3044 13.643 52.4007 13.5756 52.5005 13.5135C52.591 13.4553 52.6893 13.4101 52.7924 13.3794C52.8877 13.3679 52.9844 13.3772 53.0758 13.4065C53.1858 13.4362 53.2936 13.4737 53.3983 13.5185C53.6139 13.6017 53.8294 13.7036 54.0365 13.8054L54.14 13.858L54.2215 13.7799C54.3912 13.6221 54.561 13.4676 54.7307 13.3217C54.8173 13.2487 54.9004 13.1774 54.9938 13.1163C55.0158 13.1027 55.0379 13.0874 55.0583 13.0773L55.0888 13.0603C55.0888 13.0603 55.0888 13.0603 55.099 13.0603C55.1411 13.0525 55.1842 13.0525 55.2263 13.0603C55.4472 13.1038 55.6633 13.1692 55.8713 13.2555C56.0953 13.3251 56.3109 13.4167 56.5264 13.5033Z" fill="#263238"/>
<path d="M14.1845 20.9902C14.0579 20.8958 13.9246 20.8107 13.7856 20.7356C13.6444 20.6546 13.4932 20.5924 13.3358 20.5506C13.2876 20.5388 13.2375 20.5359 13.1882 20.5422C13.172 20.5455 13.1562 20.5501 13.1407 20.5557L13.1084 20.5727L13.0524 20.605C12.9833 20.6489 12.917 20.6971 12.8538 20.7492C12.7282 20.8494 12.6145 20.958 12.4991 21.0683L12.623 21.0462C12.4735 20.9798 12.3199 20.9231 12.163 20.8765C12.0819 20.8511 11.9991 20.8313 11.9152 20.8171C11.8709 20.8096 11.8261 20.8056 11.7811 20.8052C11.7569 20.8028 11.7324 20.8028 11.7082 20.8052C11.6815 20.8102 11.6554 20.8176 11.6301 20.8273C11.5502 20.8652 11.4768 20.9156 11.4128 20.9767C11.35 21.0327 11.294 21.0921 11.2431 21.1464C11.1357 21.2687 11.0381 21.3992 10.9512 21.5368C11.0734 21.4298 11.1939 21.3229 11.3178 21.2245C11.3789 21.1752 11.4417 21.126 11.5062 21.0836C11.5641 21.0413 11.6275 21.007 11.6946 20.9817C11.758 20.971 11.8231 20.9751 11.8847 20.9936C11.9585 21.0114 12.0311 21.0341 12.1019 21.0615C12.2479 21.1124 12.3956 21.1752 12.5347 21.2312L12.606 21.2635L12.6586 21.2092C12.7639 21.1006 12.8776 20.9953 12.9896 20.8935C13.0437 20.8431 13.1004 20.7955 13.1593 20.7509L13.2018 20.7221L13.2204 20.7102C13.2485 20.7057 13.2772 20.7057 13.3053 20.7102C13.453 20.7343 13.598 20.773 13.7381 20.8256C13.8909 20.8799 14.0368 20.9359 14.1845 20.9902Z" fill="#263238"/>
<path d="M18.0546 20.3636C17.9206 20.1684 17.7738 19.9824 17.615 19.8069C17.4558 19.6226 17.2725 19.4605 17.0702 19.3248C17.0071 19.2854 16.9376 19.2572 16.8648 19.2417C16.84 19.2389 16.815 19.2389 16.7901 19.2417H16.7375C16.7019 19.2417 16.673 19.2552 16.6408 19.2603C16.5219 19.2899 16.4046 19.3256 16.2894 19.3673C16.062 19.4487 15.8482 19.5455 15.6326 19.6456L15.8159 19.6762C15.6396 19.503 15.4513 19.3425 15.2524 19.1958C15.1502 19.1217 15.0436 19.0537 14.9333 18.9922C14.8739 18.9598 14.812 18.9319 14.7483 18.909C14.7136 18.8964 14.6778 18.8867 14.6414 18.8801C14.6013 18.8775 14.561 18.8775 14.5209 18.8801C14.3889 18.8953 14.2601 18.9308 14.139 18.9854C14.0236 19.0346 13.915 19.0906 13.7995 19.1551C13.5879 19.2751 13.3859 19.4113 13.1953 19.5624C13.4211 19.4742 13.6417 19.3808 13.8742 19.3028C13.9854 19.2608 14.0987 19.2245 14.2137 19.1941C14.3174 19.1631 14.4246 19.1454 14.5328 19.1415C14.6276 19.1592 14.7174 19.1974 14.7958 19.2535C14.8916 19.315 14.9835 19.3825 15.0708 19.4555C15.2507 19.5998 15.4272 19.7593 15.5953 19.9189L15.6784 20.0003L15.7786 19.9494C15.9822 19.8476 16.1944 19.7525 16.4032 19.6643C16.5052 19.6199 16.6094 19.5808 16.7155 19.5472L16.7901 19.5268H16.8241C16.828 19.5258 16.8321 19.5258 16.836 19.5268C16.8782 19.5313 16.9191 19.544 16.9565 19.5641C17.155 19.6703 17.3421 19.7966 17.5149 19.9409C17.6931 20.0631 17.8713 20.2142 18.0546 20.3636Z" fill="#263238"/>
<path d="M62.0507 12.3714C61.9167 12.1762 61.7699 11.9903 61.6111 11.8147C61.4522 11.63 61.2689 11.4678 61.0663 11.3326C61.0032 11.2932 60.9337 11.265 60.8609 11.2495C60.8361 11.2467 60.8111 11.2467 60.7862 11.2495H60.7336C60.698 11.2495 60.6691 11.2631 60.6369 11.2681C60.518 11.2977 60.4007 11.3334 60.2855 11.3751C60.0598 11.4565 59.8442 11.5448 59.6287 11.6534L59.812 11.684C59.6357 11.5108 59.4474 11.3503 59.2485 11.2037C59.1463 11.1295 59.0397 11.0615 58.9294 11C58.87 10.9676 58.8081 10.9398 58.7444 10.9168C58.7096 10.9042 58.6739 10.8945 58.6375 10.888C58.5974 10.8853 58.5571 10.8853 58.517 10.888C58.385 10.9031 58.2562 10.9386 58.1351 10.9932C58.0197 11.0424 57.9111 11.0984 57.7956 11.1629C57.5846 11.2839 57.3827 11.42 57.1914 11.5703C57.4171 11.482 57.6395 11.3887 57.8703 11.3106C57.9815 11.2686 58.0948 11.2324 58.2098 11.202C58.3135 11.1709 58.4207 11.1533 58.5289 11.1493C58.6237 11.167 58.7135 11.2053 58.7919 11.2614C58.8877 11.3229 58.9796 11.3903 59.0669 11.4633C59.2468 11.6076 59.4233 11.7671 59.5914 11.9267L59.6745 12.0082L59.7747 11.9572C59.9783 11.8554 60.1922 11.7604 60.401 11.6721C60.5023 11.6274 60.606 11.5883 60.7116 11.555L60.7862 11.5346H60.8202C60.8202 11.5346 60.8202 11.5346 60.8321 11.5346C60.8748 11.5392 60.9163 11.5519 60.9543 11.572C61.1516 11.6792 61.3381 11.8054 61.511 11.9488C61.6892 12.071 61.8674 12.222 62.0507 12.3714Z" fill="#263238"/>
<path d="M42.1764 71.4605C55.1835 71.4605 65.7279 70.6253 65.7279 69.5952C65.7279 68.565 55.1835 67.7299 42.1764 67.7299C29.1693 67.7299 18.625 68.565 18.625 69.5952C18.625 70.6253 29.1693 71.4605 42.1764 71.4605Z" fill="#EBEBEB"/>
<path d="M48.3405 21.5302C48.2366 21.6748 39.0038 22.526 38.5568 22.4203C38.535 22.4153 38.5139 22.4079 38.4938 22.398C37.9375 22.1681 35.3061 19.9707 35.1059 19.7852C34.6163 19.3272 36.391 15.867 36.9806 15.281C37.3719 14.8897 38.1248 14.7098 38.1248 14.7098C38.1248 14.7098 39.9791 8.42355 41.2364 7.06615C41.5517 6.72681 47.2835 6.32441 48.3312 6.7472C48.78 6.93264 49.9 7.96737 49.9371 8.16208C49.9779 8.44765 48.4369 21.3837 48.3405 21.5302Z" fill="#455A64"/>
<path d="M48.3389 21.5299C48.235 21.6745 39.0021 22.5257 38.5552 22.42C38.5334 22.415 38.5123 22.4075 38.4922 22.3977C39.2655 19.9592 42.9037 8.51223 43.0187 8.43435C43.1337 8.35647 48.6189 8.13024 49.9355 8.16361C49.9763 8.44733 48.4353 21.3834 48.3389 21.5299Z" fill="#37474F"/>
<path d="M50.2902 6.27984C50.1882 7.10503 49.8507 7.7522 49.5077 7.793L41.7676 7.89684L42.1514 4.7129L49.708 4.61276C49.7461 4.59983 49.7868 4.59602 49.8266 4.60164C49.8402 4.59987 49.8539 4.59987 49.8674 4.60164H49.8934C50.2068 4.74628 50.383 5.4565 50.2902 6.27984Z" fill="#FF42B3"/>
<path opacity="0.1" d="M50.2902 6.27984C50.1882 7.10503 49.8507 7.7522 49.5077 7.793L41.7676 7.89684L42.1514 4.7129L49.708 4.61276C49.7461 4.59983 49.7868 4.59602 49.8266 4.60164C49.8402 4.59987 49.8539 4.59987 49.8674 4.60164H49.8934C50.2068 4.74628 50.383 5.4565 50.2902 6.27984Z" fill="black"/>
<path d="M42.6088 6.39165C42.5031 7.27062 42.1229 7.94746 41.7613 7.90481C41.3997 7.86216 41.1902 7.11115 41.2978 6.23589C41.4053 5.36063 41.7836 4.68008 42.1452 4.72273C42.5068 4.76538 42.7163 5.51454 42.6088 6.39165Z" fill="#FF42B3"/>
<path d="M39.2581 68.2635C38.8112 68.1096 28.6752 60.3028 28.4787 59.7613C28.4008 59.5573 29.4522 58.0126 30.7762 56.1861C30.7892 56.1657 30.804 56.1471 30.817 56.1286C31.0896 55.7577 35.9666 49.4529 35.9666 49.4529L42.633 54.723L37.413 61.0853L37.3258 61.1947C37.3258 61.1947 39.8682 65.9178 40.0221 66.5371C40.176 67.1565 39.7031 68.4175 39.2581 68.2635Z" fill="#FFC4C0"/>
<path d="M28.4801 59.7613C28.6748 60.3046 38.8108 68.1059 39.2577 68.2636C39.7046 68.4212 40.1737 67.1509 40.0217 66.5427C39.8696 65.9345 37.3254 61.1984 37.3254 61.1984L37.4126 61.0909L38.0505 60.4029L31.5101 55.2107C31.2913 55.4647 30.85 56.0711 30.8092 56.1267C30.7944 56.1453 30.7814 56.1657 30.7665 56.1824C29.4518 58.0145 28.4078 59.5573 28.4801 59.7613Z" fill="#EBEBEB"/>
<path d="M39.2634 68.3118C38.8146 68.1542 28.6379 60.2305 28.4413 59.6835C28.3653 59.4758 29.4316 57.9274 30.776 56.0916L37.3515 61.1799C37.3515 61.1799 39.892 65.9568 40.0441 66.5817C40.1961 67.2066 39.7196 68.4713 39.2634 68.3118Z" fill="#FF42B3"/>
<path d="M39.4337 67.7932C37.7647 66.4229 30.8813 61.0545 29.1234 59.8195C29.1086 59.8102 29.1011 59.8195 29.1141 59.8306C30.7441 61.2251 37.6664 66.536 39.4133 67.8136C39.4485 67.847 39.4689 67.821 39.4337 67.7932Z" fill="#263238"/>
<path d="M39.675 65.7049C39.4885 65.5539 39.2729 65.443 39.0415 65.3792C38.8102 65.3154 38.5682 65.3 38.3306 65.334C37.9016 65.3916 37.5112 65.6121 37.2402 65.9497C37.2402 65.959 37.2514 65.9738 37.2606 65.9645C37.5816 65.6718 37.9888 65.4912 38.4211 65.4497C38.8535 65.4083 39.2876 65.5082 39.6583 65.7346C39.6732 65.7364 39.6899 65.716 39.675 65.7049Z" fill="#263238"/>
<path d="M37.8826 61.8665C37.2058 61.325 36.2267 60.9504 35.3681 61.1785C35.3347 61.1785 35.3477 61.2342 35.3681 61.2397C36.2093 61.391 37.0318 61.6322 37.8214 61.9592C37.8337 61.9673 37.8487 61.9702 37.8632 61.9673C37.8776 61.9643 37.8903 61.9557 37.8984 61.9434C37.9065 61.9312 37.9094 61.9161 37.9064 61.9017C37.9035 61.8873 37.8949 61.8746 37.8826 61.8665Z" fill="#263238"/>
<path d="M38.2498 62.4815C37.573 61.94 36.5939 61.5654 35.7353 61.7935C35.7019 61.7935 35.7149 61.8491 35.7353 61.8547C36.5765 62.006 37.399 62.2472 38.1886 62.5742C38.1947 62.5782 38.2015 62.581 38.2087 62.5824C38.2159 62.5838 38.2232 62.5837 38.2304 62.5823C38.2375 62.5808 38.2443 62.5779 38.2503 62.5738C38.2564 62.5698 38.2616 62.5645 38.2656 62.5584C38.2696 62.5523 38.2724 62.5455 38.2738 62.5384C38.2751 62.5312 38.2751 62.5238 38.2736 62.5167C38.2722 62.5095 38.2693 62.5028 38.2652 62.4967C38.2611 62.4907 38.2559 62.4855 38.2498 62.4815Z" fill="#263238"/>
<path d="M38.617 63.0976C37.9402 62.5561 36.9611 62.1815 36.1025 62.4096C36.0691 62.4189 36.0821 62.4652 36.1025 62.4708C36.946 62.6197 37.771 62.8591 38.5632 63.1847C38.5743 63.1875 38.5859 63.1866 38.5965 63.1823C38.607 63.178 38.6159 63.1705 38.6219 63.1608C38.6279 63.1511 38.6306 63.1397 38.6297 63.1284C38.6289 63.117 38.6244 63.1062 38.617 63.0976Z" fill="#263238"/>
<path d="M38.9783 63.7133C38.3015 63.1718 37.3224 62.7972 36.4638 63.0253C36.4304 63.0346 36.4434 63.081 36.4638 63.0865C37.3048 63.2387 38.1272 63.4799 38.9171 63.806C38.9294 63.8141 38.9444 63.817 38.9589 63.8141C38.9733 63.8111 38.986 63.8025 38.9941 63.7902C39.0022 63.778 39.0051 63.7629 39.0021 63.7485C38.9992 63.7341 38.9906 63.7214 38.9783 63.7133Z" fill="#263238"/>
<path d="M30.8196 58.5488C30.0519 57.9535 29.1266 59.1459 29.8924 59.7411C30.6583 60.3364 31.5892 59.1403 30.8196 58.5488Z" fill="white"/>
<path d="M40.0401 60.618C39.9177 60.0617 39.2631 60.0042 38.8181 60.1359C38.0589 60.3754 37.3764 60.811 36.8394 61.3987C36.8368 61.4008 36.8346 61.4034 36.8331 61.4065C36.8316 61.4095 36.8308 61.4129 36.8308 61.4163C36.8308 61.4197 36.8316 61.423 36.8331 61.4261C36.8346 61.4292 36.8368 61.4318 36.8394 61.4339C36.8319 61.4488 36.828 61.4652 36.8281 61.4819C36.8283 61.4986 36.8324 61.515 36.8402 61.5297C36.8481 61.5445 36.8593 61.5571 36.8731 61.5666C36.8868 61.576 36.9026 61.5821 36.9192 61.5841C37.6609 61.6268 38.462 61.7695 39.2001 61.5841C39.6377 61.4654 40.155 61.1446 40.0401 60.618ZM38.0726 61.4172C37.7017 61.4042 37.3309 61.3746 36.96 61.3764C37.3385 61.1196 37.7296 60.882 38.1319 60.6643C38.3285 60.5623 38.5317 60.4737 38.7402 60.3992C39.0647 60.2879 40.1792 60.2397 39.6674 61.0352C39.3966 61.4747 38.5102 61.4302 38.0726 61.4172Z" fill="#263238"/>
<path d="M34.9442 60.3312C35.4689 60.8875 36.2144 61.1935 36.869 61.5569C36.884 61.5638 36.9004 61.567 36.9168 61.5662C36.9333 61.5655 36.9493 61.5609 36.9636 61.5527C36.9779 61.5446 36.9901 61.5331 36.9991 61.5194C37.0081 61.5056 37.0137 61.4899 37.0155 61.4735C37.0303 61.4735 37.0433 61.4735 37.0415 61.4457C36.901 60.6617 36.5563 59.9287 36.0419 59.3206C35.7378 58.9701 35.1537 58.6715 34.7532 59.0758C34.3526 59.48 34.64 60.0067 34.9442 60.3312ZM34.8348 59.621C34.8348 58.6752 35.7452 59.3131 35.9604 59.5802C36.0963 59.7571 36.2202 59.943 36.3312 60.1365C36.5552 60.5357 36.7589 60.9461 36.9413 61.3659C36.6316 61.1675 36.3071 60.995 35.9882 60.8096C35.6099 60.5889 34.8385 60.142 34.8348 59.621Z" fill="#263238"/>
<path d="M32.8145 53.3827L39.3325 58.8086C39.3325 58.8086 49.7726 46.4956 50.1546 44.6413C50.5904 42.5384 51.7994 26.0643 51.7716 25.2428C51.7382 24.247 50.6423 19.8651 50.6423 19.8651H42.8206C42.8206 19.8651 41.7265 41.4091 41.4984 42.0767C41.2537 42.798 32.8145 53.3827 32.8145 53.3827Z" fill="#37474F"/>
<path d="M32.125 54.4134L33.0411 52.6852L39.8151 58.6247L38.4836 59.793L32.125 54.4134Z" fill="#455A64"/>
<path d="M39.9492 57.1745C38.9423 56.2009 35.0092 53.0782 34.5196 52.8223C34.5085 52.8223 34.4936 52.8352 34.5029 52.8445C34.8571 53.2673 38.2116 56.0136 39.9232 57.206C39.9418 57.219 39.9659 57.1893 39.9492 57.1745Z" fill="#263238"/>
<path d="M51.0332 23.1083C50.9293 23.0766 50.8234 23.0518 50.7162 23.0341C50.6023 23.003 50.4917 22.9608 50.3861 22.9081C50.1651 22.7966 49.962 22.6528 49.7834 22.4815C49.5822 22.2667 49.4248 22.0148 49.3198 21.7398C49.2512 21.5822 48.9323 20.744 48.9285 20.7366C48.9248 20.7292 48.897 20.7366 48.9007 20.7496C48.923 20.8664 49.1418 21.5915 49.2067 21.7713C49.3044 22.0908 49.4687 22.386 49.6888 22.6373C49.8775 22.832 50.1049 22.9849 50.3564 23.0861C50.4713 23.1347 50.5924 23.1672 50.7162 23.1825C50.8244 23.2081 50.9378 23.2017 51.0425 23.164C51.0555 23.151 51.0444 23.1139 51.0332 23.1083Z" fill="#263238"/>
<path d="M44.1118 20.2506L43.9468 24.5768L43.7614 28.9031L43.346 37.5537C43.2681 38.9945 43.1902 40.4354 43.0994 41.8762C43.0994 42.0616 43.0753 42.2471 43.0567 42.4325C43.056 42.4611 43.0503 42.4893 43.04 42.516C43.0298 42.5396 43.018 42.5625 43.0048 42.5846C42.9825 42.6272 42.9566 42.6662 42.9325 42.7051C42.8824 42.783 42.8305 42.8572 42.7786 42.9313C42.569 43.228 42.3521 43.5173 42.1332 43.8047C41.6956 44.3796 41.2469 44.9452 40.7981 45.5108C39.8981 46.6407 38.992 47.7644 38.0796 48.882L35.3203 52.2198L38.011 48.8264C38.9067 47.6952 39.8042 46.564 40.6887 45.4255C41.1325 44.8568 41.572 44.2844 42.0071 43.7083C42.2241 43.4209 42.4392 43.1316 42.645 42.8386C42.6951 42.7644 42.747 42.6903 42.7934 42.6161C42.8398 42.5419 42.8991 42.4677 42.8935 42.4047C42.9084 42.2304 42.9232 42.0561 42.9325 41.8743C43.0178 40.4335 43.0882 38.9927 43.1624 37.5518L43.6149 28.8957L43.8522 24.5731L44.1118 20.2506Z" fill="#263238"/>
<path d="M50.3123 43.4913C50.2548 44.0216 50.2029 44.4185 50.1565 44.6391C49.9414 45.6776 46.5535 50.0168 43.6255 53.6254L41.6172 40.9953C41.9751 36.5133 42.8207 19.8685 42.8207 19.8685H46.7148L50.3123 43.4913Z" fill="#263238"/>
<path d="M61.3433 68.0062C60.9316 68.2343 48.3442 70.5207 47.8064 70.3019C47.6024 70.224 47.1611 68.4086 46.6938 66.2L46.6808 66.1314C46.5825 65.6771 45.4551 57.9481 45.4551 57.9481L52.9949 56.5592L54.7844 64.5664L54.8066 64.7036C54.8066 64.7036 60.0155 65.9831 60.5793 66.2853C61.143 66.5876 61.7568 67.7707 61.3433 68.0062Z" fill="#FFC4C0"/>
<path d="M46.498 65.2468C46.5592 65.5454 46.6204 65.8365 46.6835 66.1221L46.6965 66.1925C47.1656 68.3992 47.607 70.2146 47.8091 70.2925C48.3431 70.5113 60.9306 68.2249 61.3459 67.9968C61.7613 67.7687 61.1401 66.5764 60.5819 66.276C60.0238 65.9756 54.8093 64.6961 54.8093 64.6961L54.7871 64.557L54.6517 63.6947L46.498 65.2468Z" fill="#EBEBEB"/>
<path d="M61.4538 68.006C61.0366 68.2341 48.3379 70.4964 47.8001 70.2776C47.5943 70.196 47.1585 68.3657 46.6875 66.1386L54.8708 64.6552C54.8708 64.6552 60.1205 65.9643 60.6842 66.2685C61.248 66.5726 61.871 67.7779 61.4538 68.006Z" fill="#FF42B3"/>
<path d="M61.1807 67.5293C59.0426 67.8556 50.4513 69.3836 48.3614 69.8639C48.3448 69.8639 48.3466 69.8787 48.3614 69.8769C50.4865 69.5987 59.0667 68.0077 61.1825 67.5645C61.2307 67.5552 61.2307 67.5218 61.1807 67.5293Z" fill="#263238"/>
<path d="M59.7896 65.9547C59.5522 65.9903 59.3248 66.0745 59.1215 66.2021C58.9182 66.3298 58.7435 66.4981 58.6084 66.6965C58.3649 67.0541 58.2674 67.4913 58.3358 67.9185C58.3358 67.9296 58.3618 67.9185 58.3618 67.9185C58.3586 67.484 58.4967 67.0603 58.7552 66.7112C59.0138 66.362 59.3787 66.1063 59.7952 65.9825C59.798 65.981 59.8002 65.9787 59.8016 65.9758C59.8029 65.9729 59.8033 65.9697 59.8027 65.9666C59.8021 65.9634 59.8005 65.9606 59.7981 65.9585C59.7958 65.9564 59.7928 65.955 59.7896 65.9547Z" fill="#263238"/>
<path d="M55.7384 64.7181C54.8835 64.859 53.9489 65.3356 53.5447 66.1256C53.528 66.1571 53.5725 66.1793 53.5947 66.1608C54.2705 65.6374 55.0003 65.188 55.7718 64.8201C55.7844 64.815 55.7947 64.8053 55.8004 64.7929C55.8062 64.7805 55.807 64.7664 55.8028 64.7535C55.7985 64.7405 55.7895 64.7297 55.7776 64.7231C55.7656 64.7165 55.7516 64.7147 55.7384 64.7181Z" fill="#263238"/>
<path d="M56.4409 64.8533C55.5861 64.9943 54.6533 65.4709 54.2472 66.2627C54.2324 66.2923 54.275 66.3146 54.2991 66.296C54.9742 65.7727 55.7034 65.3232 56.4743 64.9553C56.4869 64.9502 56.4972 64.9405 56.5029 64.9282C56.5087 64.9158 56.5095 64.9017 56.5053 64.8887C56.5011 64.8758 56.492 64.8649 56.4801 64.8583C56.4681 64.8518 56.4541 64.85 56.4409 64.8533Z" fill="#263238"/>
<path d="M57.1499 64.9967C56.2969 65.1376 55.3623 65.6142 54.9562 66.406C54.9414 66.4357 54.984 66.4579 55.0081 66.4412C55.6823 65.9166 56.4116 65.467 57.1833 65.1005C57.1945 65.0943 57.2032 65.0843 57.2079 65.0724C57.2126 65.0604 57.213 65.0472 57.2091 65.0349C57.2052 65.0227 57.1971 65.0122 57.1863 65.0052C57.1755 64.9983 57.1627 64.9952 57.1499 64.9967Z" fill="#263238"/>
<path d="M57.8478 65.1355C56.9929 65.2764 56.0583 65.753 55.6541 66.5448C55.6374 66.5745 55.6819 66.5967 55.7041 66.58C56.3794 66.056 57.1093 65.6065 57.8811 65.2393C57.8924 65.2331 57.9011 65.2231 57.9058 65.2112C57.9105 65.1992 57.9109 65.186 57.907 65.1737C57.903 65.1615 57.895 65.151 57.8842 65.144C57.8734 65.1371 57.8605 65.134 57.8478 65.1355Z" fill="#263238"/>
<path d="M48.5444 67.7451C47.5876 67.9194 47.8565 69.4029 48.8133 69.2286C49.7702 69.0543 49.5013 67.5727 48.5444 67.7451Z" fill="white"/>
<path d="M56.2537 62.2818C55.7586 61.9999 55.2765 62.4468 55.0781 62.8659C54.7485 63.5907 54.6148 64.3893 54.6905 65.182C54.6909 65.1856 54.6921 65.189 54.6939 65.1921C54.6958 65.1952 54.6984 65.1978 54.7014 65.1997C54.7044 65.2017 54.7078 65.2029 54.7114 65.2034C54.715 65.2039 54.7186 65.2035 54.722 65.2024C54.7284 65.2176 54.7382 65.2312 54.7508 65.242C54.7633 65.2528 54.7782 65.2604 54.7943 65.2644C54.8103 65.2684 54.8271 65.2685 54.8432 65.2648C54.8593 65.2611 54.8743 65.2537 54.8871 65.2432C55.4193 64.7165 56.0535 64.2177 56.4077 63.5427C56.6135 63.1477 56.721 62.5469 56.2537 62.2818ZM55.5305 64.2789C55.2746 64.5441 55.0076 64.7963 54.7628 65.0707C54.8252 64.6173 54.9106 64.1673 55.0187 63.7226C55.074 63.5087 55.1434 63.2987 55.2264 63.094C55.3618 62.7787 56.072 61.9183 56.3205 62.8288C56.4596 63.3313 55.8347 63.9618 55.5305 64.2789Z" fill="#263238"/>
<path d="M52.6306 65.8756C53.3927 65.857 54.114 65.5047 54.8298 65.2673C54.845 65.2605 54.8583 65.2502 54.8687 65.2373C54.8791 65.2243 54.8863 65.2091 54.8898 65.1928C54.8932 65.1766 54.8928 65.1597 54.8885 65.1437C54.8842 65.1276 54.8762 65.1128 54.8651 65.1005C54.8743 65.0893 54.878 65.0726 54.8651 65.0634C54.1885 64.6434 53.4134 64.4087 52.6176 64.3828C52.154 64.3828 51.5402 64.6109 51.5736 65.1783C51.5995 65.7161 52.1855 65.8867 52.6306 65.8756ZM52.0297 65.4825C51.3232 64.8538 52.4099 64.5998 52.7511 64.6183C52.9723 64.6336 53.1923 64.664 53.4094 64.7092C53.8555 64.8104 54.2962 64.9342 54.7297 65.0801C54.3755 65.1783 54.0306 65.3063 53.6801 65.4176C53.2573 65.5474 52.4192 65.8292 52.0297 65.4825Z" fill="#263238"/>
<path d="M49.0854 19.8685C49.0854 19.8685 48.8795 23.2064 47.9579 25.5948C47.9579 25.5948 46.6265 26.4237 46.4874 26.5554L54.4092 62.2574L46.2853 63.8374C46.2853 63.8374 43.0939 46.5436 42.8213 45.3586C42.3855 43.456 38.9271 27.273 38.7825 26.3532C38.4636 24.4303 40.2382 19.8759 40.2382 19.8759L49.0854 19.8685Z" fill="#37474F"/>
<path d="M53.5797 60.4668C51.3452 60.8024 47.0746 61.7073 46.5479 61.9261C46.5368 61.9261 46.5479 61.954 46.5479 61.954C47.1172 61.9447 52.3224 60.9118 53.5834 60.5076C53.5888 60.5071 53.5938 60.5044 53.5972 60.5003C53.6007 60.4961 53.6024 60.4907 53.6019 60.4853C53.6014 60.4799 53.5988 60.4749 53.5946 60.4714C53.5905 60.4679 53.5851 60.4663 53.5797 60.4668Z" fill="#263238"/>
<path d="M41.2377 23.1102C41.4009 23.0732 41.5752 23.0843 41.7402 23.0639C42.2467 23.0028 42.7358 22.8414 43.1792 22.5892C43.4595 22.4123 43.6904 22.1673 43.8505 21.8771C43.945 21.725 44.3771 20.9017 44.3827 20.8961C44.3882 20.8906 44.4327 20.8961 44.429 20.9128C44.4049 21.0278 44.1212 21.7417 44.0359 21.9197C43.8888 22.2577 43.6482 22.5466 43.3424 22.7523C42.8608 23.039 42.3135 23.1968 41.7532 23.2104C41.5768 23.226 41.399 23.2097 41.2284 23.1622C41.2043 23.151 41.2154 23.1139 41.2377 23.1102Z" fill="#263238"/>
<path d="M48.1508 25.5056C47.4096 25.7664 46.6928 26.0922 46.009 26.4791C46.0031 26.4816 45.9984 26.4863 45.996 26.4922C45.9935 26.4981 45.9935 26.5048 45.996 26.5107C45.9985 26.5166 46.0032 26.5212 46.0091 26.5237C46.015 26.5261 46.0216 26.5261 46.0275 26.5236C46.7489 26.2214 47.4851 25.9321 48.1879 25.5965C48.1999 25.5915 48.2095 25.582 48.2145 25.57C48.2196 25.558 48.2197 25.5445 48.2147 25.5325C48.2098 25.5204 48.2003 25.5108 48.1883 25.5058C48.1763 25.5007 48.1628 25.5007 48.1508 25.5056Z" fill="#263238"/>
<path d="M48.4227 20.5774C48.4227 20.5514 48.3782 20.5459 48.3782 20.5774C48.3711 21.3791 48.3235 22.18 48.2354 22.9769C48.1984 23.3478 47.8831 25.3876 47.2415 25.2337C47.1339 25.2077 47.0802 25.102 47.0653 24.9389C47.0699 24.7276 47.1005 24.5177 47.1562 24.3139C47.2304 23.8856 47.2916 23.4572 47.3324 23.0159C47.4152 22.2145 47.4152 21.4066 47.3324 20.6052C47.3324 20.5998 47.3302 20.5946 47.3264 20.5908C47.3226 20.587 47.3174 20.5848 47.312 20.5848C47.3066 20.5848 47.3014 20.587 47.2975 20.5908C47.2937 20.5946 47.2916 20.5998 47.2916 20.6052C47.3006 21.7219 47.225 22.8378 47.0653 23.9431C46.98 24.4753 46.7056 25.2726 47.26 25.3598C47.8145 25.447 48.2058 24.11 48.2781 23.7446C48.4634 22.6996 48.512 21.635 48.4227 20.5774Z" fill="#263238"/>
<path d="M47.2583 25.2853C47.1997 25.4229 47.1502 25.5641 47.1099 25.7081C47.068 25.8195 47.0466 25.9376 47.0469 26.0567C47.0469 26.079 47.0784 26.0808 47.0914 26.066C47.1591 25.962 47.2104 25.8481 47.2434 25.7285C47.2935 25.5968 47.3473 25.467 47.3936 25.3354C47.3989 25.3177 47.3972 25.2988 47.389 25.2824C47.3808 25.266 47.3666 25.2533 47.3494 25.2469C47.3322 25.2406 47.3132 25.241 47.2963 25.2481C47.2793 25.2552 47.2658 25.2685 47.2583 25.2853Z" fill="#263238"/>
<path d="M40.9029 19.8685C40.6822 20.716 40.4727 21.5671 40.2817 22.422C40.0907 23.2768 39.9108 24.1354 39.8032 25.0033L39.7736 25.3278C39.7643 25.4353 39.7736 25.5429 39.7624 25.6504L39.8589 26.2939L40.1036 27.592L40.6266 30.1677L42.7739 40.4594L44.925 50.7511L45.9913 55.8988L47.0445 61.0502L45.9022 55.9174L44.7896 50.7808L42.5941 40.4891C41.8838 37.0566 41.1662 33.6279 40.4875 30.1881L39.9905 27.6068L39.7569 26.3087L39.666 25.6523C39.6705 25.4289 39.6885 25.206 39.7198 24.9847C39.8422 24.1132 40.0387 23.2583 40.2427 22.4053C40.4467 21.5523 40.6674 20.7197 40.9029 19.8685Z" fill="#263238"/>
<path d="M46.4005 64.5402L45.5957 62.7563L54.441 61.0428L54.5486 62.8119L46.4005 64.5402Z" fill="#455A64"/>
<path d="M52.1939 7.19584C52.5184 8.02289 52.9802 8.77576 53.2379 9.63248C53.4901 10.4205 53.5642 11.2546 53.4549 12.0747C52.995 15.075 49.0878 16.8756 46.3434 15.9429C45.0323 15.4978 43.8901 14.4334 43.5414 13.0668C43.1149 11.3978 44.0087 9.78453 44.5502 8.25654C44.8502 7.40053 44.9989 6.49883 44.9897 5.59182C44.9897 4.79629 44.9433 3.98965 45.1028 3.20525C45.2178 2.64894 45.5998 1.02081 47.66 0.369928C49.1435 -0.0955175 50.6362 0.712985 51.3261 2.11674C52.1271 3.75043 51.5542 5.55473 52.1939 7.19584Z" fill="#263238"/>
<path d="M45.148 7.44071C44.5083 8.80923 43.6645 10.2074 43.4235 11.7169C43.2195 12.9704 43.557 14.3241 44.6474 15.0696C44.6566 15.0696 44.6678 15.0696 44.6585 15.0547C43.5125 14.1683 43.3716 12.6441 43.6924 11.3163C44.0206 9.96635 44.805 8.79068 45.2129 7.46852C45.2241 7.42587 45.1666 7.39806 45.148 7.44071Z" fill="#263238"/>
<path d="M44.8592 7.36798C44.3752 9.163 42.8973 10.5779 42.8027 12.4879C42.8027 12.5101 42.8361 12.5157 42.838 12.4879C42.9622 10.5797 44.6052 9.22605 44.8945 7.36798C44.8932 7.36427 44.8909 7.36104 44.8877 7.35875C44.8846 7.35646 44.8807 7.35522 44.8768 7.35522C44.8729 7.35522 44.8691 7.35646 44.866 7.35875C44.8628 7.36104 44.8604 7.36427 44.8592 7.36798Z" fill="#263238"/>
<path d="M52.2962 7.16622C51.988 6.50103 51.7997 5.78664 51.7399 5.05596C51.7399 5.01887 51.675 5.01516 51.6732 5.05596C51.5007 7.69286 54.5177 9.66776 53.713 12.3937C53.713 12.4122 53.7352 12.4252 53.7426 12.4048C54.1283 11.2811 53.8279 10.1573 53.3235 9.12072C52.9972 8.45686 52.6078 7.83194 52.2962 7.16622Z" fill="#263238"/>
<path d="M51.6855 4.66464C51.6855 4.61457 51.6058 4.6294 51.6095 4.67762C51.6811 5.66427 52 6.61702 52.5367 7.44804C52.7981 7.85785 53.1208 8.22502 53.3749 8.64225C53.653 9.09657 53.8681 9.58612 54.1018 10.0645C54.1018 10.0775 54.124 10.0645 54.1203 10.0645C53.8162 9.15591 53.3396 8.43456 52.7944 7.65387C52.1826 6.76487 51.8015 5.73761 51.6855 4.66464Z" fill="#263238"/>
<path d="M48.5289 11.7092C49.228 13.9345 51.7425 21.1053 53.9659 21.7692C55.4253 22.2049 61.3055 22.7983 62.7296 21.7692C63.2859 21.3649 62.9391 16.4416 62.1269 16.551C61.3147 16.6604 56.4581 16.9218 55.8814 16.7067C55.3047 16.4916 51.2733 11.0565 49.7194 9.66016C47.038 7.26061 48.1506 10.5206 48.5289 11.7092Z" fill="#FFC4C0"/>
<path d="M53.2036 13.1357L49.8324 16.7239C49.8324 16.7239 48.0652 11.6077 47.9576 9.96475C47.8482 8.11039 48.8217 8.45715 50.1569 9.62169C51.492 10.7862 53.2036 13.1357 53.2036 13.1357Z" fill="#FF42B3"/>
<path d="M52.5154 12.6516C52.38 12.7592 51.3193 13.87 51.0949 14.1147C50.8706 14.3595 49.9397 15.359 49.7283 15.6335C49.719 15.6446 49.7283 15.6613 49.745 15.6501C50.0027 15.4221 50.9447 14.4188 51.1784 14.1667C51.412 13.9145 52.4375 12.8 52.5339 12.6609C52.5358 12.6553 52.5154 12.6442 52.5154 12.6516Z" fill="#263238"/>
<path opacity="0.1" d="M52.7309 13.6362L49.8325 16.7237C49.8325 16.7237 48.0653 11.6075 47.9596 9.96453C47.891 8.80184 48.2452 8.50144 48.846 8.72581C49.7342 9.83658 51.4662 12.0136 52.7309 13.6362Z" fill="black"/>
<path d="M32.3914 44.3143L20.5352 41.0195L14.4035 63.0848L26.2598 66.3795L32.3914 44.3143Z" fill="#FF42B3"/>
<g opacity="0.1">
<path d="M31.6649 46.9344L19.8086 43.6396L19.7714 43.7736L31.6276 47.0684L31.6649 46.9344Z" fill="#020100"/>
<path d="M31.0028 49.3177L19.1465 46.0229L19.1092 46.1569L30.9655 49.4517L31.0028 49.3177Z" fill="#020100"/>
<path d="M30.0614 51.5659L18.248 48.2434L18.2105 48.3769L30.0238 51.6994L30.0614 51.5659Z" fill="#020100"/>
<path d="M29.3954 53.9372L17.582 50.6147L17.5445 50.7483L29.3578 54.0708L29.3954 53.9372Z" fill="#020100"/>
<path d="M29.0164 56.4708L17.1602 53.176L17.1229 53.31L28.9792 56.6048L29.0164 56.4708Z" fill="#020100"/>
<path d="M28.3524 58.8545L16.4961 55.5598L16.4589 55.6938L28.3151 58.9885L28.3524 58.8545Z" fill="#020100"/>
<path d="M27.6883 61.24L15.832 57.9453L15.7948 58.0793L27.6511 61.374L27.6883 61.24Z" fill="#020100"/>
<path d="M26.7333 63.4354L14.9199 60.1129L14.8824 60.2464L26.6957 63.5689L26.7333 63.4354Z" fill="#020100"/>
</g>
<path d="M26.9324 42.7914L26.0176 42.5374L19.8897 64.6037L20.8046 64.8577L26.9324 42.7914Z" fill="#263238"/>
<path d="M26.9314 51.0838L25.9434 50.8094L24.0921 57.4758L25.0802 57.7502L26.9314 51.0838Z" fill="#263238"/>
<path d="M26.7262 64.7256L23.8779 63.9338L22.2812 65.269L26.2681 66.376L26.7262 64.7256Z" fill="#263238"/>
<path d="M14.872 61.4305L17.7184 62.2224L18.399 64.1917L14.4121 63.0828L14.872 61.4305Z" fill="#263238"/>
<path d="M23.7012 67.7982L24.7544 68.0912L26.0043 66.3036L23.729 65.6713L24.1036 66.8432L23.7012 67.7982Z" fill="#263238"/>
<path d="M22.5574 68.1268C22.4773 68.4141 22.4841 68.7188 22.5771 69.0022C22.6702 69.2856 22.8452 69.5351 23.0801 69.719C23.3149 69.9029 23.5991 70.013 23.8966 70.0354C24.194 70.0577 24.4914 69.9913 24.7512 69.8446C25.0109 69.6979 25.2212 69.4774 25.3556 69.211C25.4899 68.9447 25.5423 68.6445 25.5059 68.3484C25.4696 68.0523 25.3462 67.7737 25.1515 67.5477C24.9567 67.3218 24.6993 67.1587 24.4118 67.0791C24.027 66.9725 23.6156 67.023 23.2679 67.2194C22.9203 67.4159 22.6648 67.7422 22.5574 68.1268Z" fill="#37474F"/>
<path d="M23.2155 68.3102C23.172 68.4671 23.1759 68.6333 23.2269 68.7879C23.2778 68.9426 23.3735 69.0786 23.5017 69.1789C23.63 69.2792 23.7851 69.3392 23.9474 69.3514C24.1098 69.3635 24.2721 69.3273 24.4138 69.2472C24.5556 69.1671 24.6704 69.0468 24.7438 68.9015C24.8172 68.7562 24.8459 68.5923 24.8262 68.4307C24.8065 68.2691 24.7393 68.117 24.6332 67.9935C24.527 67.8701 24.3867 67.7809 24.2299 67.7372C24.0194 67.679 23.7944 67.7067 23.6043 67.8141C23.4142 67.9215 23.2744 68.0999 23.2155 68.3102Z" fill="#DBDBDB"/>
<path d="M24.1255 68.0447C24.094 68.1597 24.0828 68.2561 24.0995 68.2598C24.1162 68.2635 24.1552 68.1764 24.1867 68.0614C24.2182 67.9464 24.2312 67.8519 24.2145 67.8463C24.1978 67.8407 24.157 67.9316 24.1255 68.0447Z" fill="#263238"/>
<path d="M24.4355 68.2713C24.3317 68.3288 24.2501 68.3882 24.2631 68.403C24.2761 68.4178 24.3632 68.3844 24.4671 68.3251C24.5709 68.2658 24.6525 68.2083 24.6377 68.1935C24.6228 68.1786 24.5375 68.212 24.4355 68.2713Z" fill="#263238"/>
<path d="M24.4945 68.6478C24.3795 68.6163 24.2831 68.6052 24.2794 68.6219C24.2757 68.6385 24.3629 68.6775 24.476 68.709C24.5891 68.7405 24.6874 68.7535 24.6911 68.7368C24.6948 68.7201 24.6076 68.6793 24.4945 68.6478Z" fill="#263238"/>
<path d="M24.2684 68.9574C24.2109 68.8535 24.1516 68.7719 24.1349 68.7849C24.1182 68.7979 24.1553 68.8851 24.2128 68.9889C24.2702 69.0927 24.3314 69.1743 24.3463 69.1595C24.3611 69.1447 24.3296 69.0594 24.2684 68.9574Z" fill="#263238"/>
<path d="M23.892 69.0166C23.9236 68.9016 23.9347 68.8052 23.918 68.8015C23.9013 68.7978 23.8624 68.885 23.829 68.9981C23.7956 69.1112 23.7863 69.2095 23.803 69.2132C23.8197 69.2169 23.8587 69.1297 23.892 69.0166Z" fill="#263238"/>
<path d="M23.5867 68.7905C23.6905 68.733 23.7721 68.6737 23.7573 68.657C23.7425 68.6403 23.659 68.6774 23.5552 68.7349C23.4513 68.7923 23.3697 68.8535 23.3846 68.8684C23.3994 68.8832 23.4773 68.8498 23.5867 68.7905Z" fill="#263238"/>
<path d="M23.5229 68.4143C23.6379 68.4458 23.7343 68.4569 23.738 68.4402C23.7417 68.4235 23.6546 68.3846 23.5396 68.3512C23.4246 68.3178 23.33 68.3086 23.3245 68.3252C23.3189 68.3419 23.4024 68.3772 23.5229 68.4143Z" fill="#263238"/>
<path d="M23.7494 68.1045C23.8068 68.2084 23.8662 68.2899 23.881 68.2751C23.8959 68.2603 23.8625 68.1768 23.8031 68.073C23.7438 67.9691 23.6863 67.8875 23.6715 67.9024C23.6566 67.9172 23.69 68.0062 23.7494 68.1045Z" fill="#263238"/>
<path d="M15.8794 65.625L14.8261 65.332L14.6777 63.1569L16.953 63.7892L16.0259 64.5996L15.8794 65.625Z" fill="#263238"/>
<path d="M16.6891 66.4965C16.6095 66.784 16.4464 67.0414 16.2204 67.2362C15.9945 67.431 15.7158 67.5543 15.4197 67.5906C15.1236 67.627 14.8234 67.5747 14.5571 67.4403C14.2908 67.3059 14.0703 67.0956 13.9235 66.8359C13.7768 66.5762 13.7104 66.2787 13.7328 65.9813C13.7551 65.6838 13.8652 65.3997 14.0491 65.1648C14.233 64.9299 14.4825 64.7549 14.7659 64.6619C15.0494 64.5688 15.354 64.562 15.6413 64.6422C15.8319 64.6951 16.0102 64.785 16.166 64.9069C16.3218 65.0287 16.4521 65.1801 16.5494 65.3523C16.6467 65.5245 16.7091 65.7142 16.733 65.9105C16.757 66.1068 16.7421 66.306 16.6891 66.4965Z" fill="#37474F"/>
<path d="M16.0305 66.3152C15.9868 66.472 15.8976 66.6124 15.7742 66.7185C15.6507 66.8247 15.4986 66.8918 15.337 66.9115C15.1754 66.9312 15.0116 66.9025 14.8662 66.8291C14.7209 66.7557 14.6006 66.6409 14.5205 66.4992C14.4405 66.3574 14.4042 66.1951 14.4164 66.0328C14.4285 65.8704 14.4885 65.7153 14.5888 65.5871C14.6891 65.4588 14.8251 65.3632 14.9798 65.3122C15.1344 65.2613 15.3007 65.2573 15.4575 65.3008C15.5618 65.3298 15.6593 65.379 15.7446 65.4456C15.8298 65.5123 15.901 65.595 15.9543 65.6893C16.0075 65.7835 16.0416 65.8872 16.0547 65.9946C16.0678 66.102 16.0596 66.211 16.0305 66.3152Z" fill="#DBDBDB"/>
<path d="M15.3875 65.6179C15.356 65.7329 15.317 65.8201 15.2985 65.8163C15.2799 65.8126 15.2985 65.7144 15.3263 65.6012C15.3541 65.4881 15.3968 65.3991 15.4134 65.4028C15.4301 65.4065 15.4283 65.5048 15.3875 65.6179Z" fill="#263238"/>
<path d="M15.008 65.6512C15.0655 65.7551 15.1007 65.8459 15.0859 65.8533C15.071 65.8608 15.0099 65.7866 14.9524 65.6827C14.8949 65.5789 14.8597 65.4973 14.8745 65.4806C14.8893 65.4639 14.9487 65.5492 15.008 65.6512Z" fill="#263238"/>
<path d="M14.7601 65.9441C14.8751 65.9756 14.9641 66.0164 14.9586 66.0331C14.953 66.0498 14.8584 66.0331 14.7435 66.0053C14.6285 65.9775 14.5413 65.9348 14.545 65.9181C14.5487 65.9014 14.647 65.9126 14.7601 65.9441Z" fill="#263238"/>
<path d="M14.7939 66.3242C14.8978 66.2667 14.9793 66.2315 14.9979 66.2482C15.0164 66.2649 14.9293 66.3224 14.8254 66.3798C14.7216 66.4373 14.64 66.4744 14.6233 66.4577C14.6066 66.441 14.6864 66.3835 14.7939 66.3242Z" fill="#263238"/>
<path d="M15.0861 66.5711C15.1194 66.4561 15.1584 66.369 15.1751 66.3727C15.1918 66.3764 15.1751 66.4747 15.1491 66.5878C15.1231 66.7009 15.0768 66.7899 15.0601 66.7862C15.0434 66.7825 15.0564 66.6842 15.0861 66.5711Z" fill="#263238"/>
<path d="M15.4681 66.5374C15.4088 66.4335 15.3754 66.3426 15.3902 66.3352C15.4051 66.3278 15.4644 66.402 15.5237 66.5058C15.5831 66.6097 15.6165 66.6913 15.6016 66.708C15.5868 66.7246 15.5256 66.6393 15.4681 66.5374Z" fill="#263238"/>
<path d="M15.7142 66.2444C15.601 66.2128 15.512 66.172 15.5157 66.1553C15.5194 66.1387 15.6177 66.1553 15.7308 66.1832C15.844 66.211 15.9348 66.2536 15.9293 66.2703C15.9237 66.287 15.8291 66.2759 15.7142 66.2444Z" fill="#263238"/>
<path d="M15.6808 65.8622C15.577 65.9216 15.4954 65.9568 15.4787 65.9401C15.462 65.9234 15.5455 65.8659 15.6493 65.8085C15.7531 65.751 15.8347 65.7139 15.8514 65.7306C15.8681 65.7473 15.7828 65.8048 15.6808 65.8622Z" fill="#263238"/>
<path d="M29.468 42.4224L27.4883 41.8727L27.2124 42.8661L29.1921 43.4159L29.468 42.4224Z" fill="#263238"/>
<path d="M36.6544 27.0543L35.7539 26.8041L30.993 43.9364L31.8935 44.1866L36.6544 27.0543Z" fill="#C7C7C7"/>
<path d="M36.9158 26.8562L35.6348 26.5002L35.035 28.6585L36.316 29.0145L36.9158 26.8562Z" fill="#263238"/>
<path d="M50.9472 16.5903L50.6431 19.8688H40.2383C40.2383 19.8688 43.2053 11.6799 46.1537 8.91505C47.3257 7.81541 48.4142 8.14178 49.2468 8.98366C49.4322 9.1691 51.7242 12.9557 51.9171 14.3057C52.0747 15.4146 50.9472 16.5903 50.9472 16.5903Z" fill="#FF42B3"/>
<path d="M49.4974 15.969C48.9729 15.982 48.4507 16.044 47.9378 16.1545C47.6801 16.2138 47.4279 16.2898 47.1738 16.3714C47.0477 16.4122 46.9198 16.4475 46.7937 16.4827C46.6633 16.5229 46.5277 16.5436 46.3913 16.5439C46.3783 16.5439 46.3765 16.5661 46.3913 16.5661C46.517 16.5859 46.6442 16.5945 46.7714 16.5921C46.8964 16.5837 47.0204 16.5651 47.1423 16.5365C47.4019 16.479 47.6615 16.4048 47.923 16.351C48.4478 16.2287 48.9726 16.1044 49.5011 16.0302C49.5215 16.021 49.5215 15.9672 49.4974 15.969Z" fill="#263238"/>
<path d="M50.7146 16.672C50.2961 16.5799 49.8716 16.5179 49.4443 16.4866C49.2306 16.4745 49.0164 16.4745 48.8027 16.4866C48.7007 16.4866 48.5969 16.4977 48.4949 16.5051C48.3929 16.5125 48.2687 16.5404 48.1555 16.5459C48.1444 16.5459 48.1426 16.57 48.1555 16.57C48.2631 16.57 48.3688 16.5904 48.4745 16.596L48.7934 16.6145C49.0067 16.6257 49.2199 16.6424 49.4332 16.6516C49.8616 16.672 50.2862 16.6961 50.7127 16.7351C50.7331 16.7202 50.735 16.6776 50.7146 16.672Z" fill="#263238"/>
<g opacity="0.1">
<path d="M50.7577 18.6505L50.7485 18.7395C50.4759 18.7655 50.1922 18.7766 49.9251 18.7766C49.3108 18.7813 48.697 18.7385 48.0893 18.6487C47.8278 18.6079 47.5682 18.5578 47.3105 18.5003L47.0249 18.4317C46.7801 18.3742 46.5354 18.3093 46.2924 18.2463C46.107 18.1962 45.9216 18.148 45.7454 18.1016L45.4913 18.0367C45.165 17.9551 44.8368 17.8828 44.5067 17.8272C44.207 17.7732 43.9041 17.7385 43.5999 17.7233C43.2961 17.7147 42.992 17.7246 42.6894 17.753C42.1127 17.8049 41.5378 17.9069 40.9648 18.0089C40.9834 17.9663 41.0019 17.9218 41.0186 17.8754C41.5706 17.7688 42.1276 17.6902 42.6875 17.6399C42.9958 17.6129 43.3057 17.6073 43.6147 17.6232C43.9224 17.6443 44.2284 17.6852 44.5308 17.7456C44.9017 17.8123 45.2633 17.9014 45.6267 17.9978L45.8696 18.0645L46.3165 18.1925C46.5836 18.2704 46.8543 18.3427 47.125 18.4057L47.4254 18.4725C47.6517 18.5189 47.8779 18.5597 48.106 18.5912C48.7119 18.6727 49.3231 18.708 49.9344 18.6969C50.2033 18.6969 50.4777 18.6802 50.7577 18.6505Z" fill="black"/>
<path d="M50.8473 17.6547V17.7066L50.6526 17.677C50.0469 17.5938 49.4356 17.5578 48.8242 17.5694C48.2143 17.5797 47.6069 17.6499 47.0107 17.7789C46.6249 17.8587 46.2448 17.9644 45.8628 18.0682L45.7478 18.1016C45.5772 18.148 45.4066 18.1962 45.2342 18.2407C44.0468 18.5826 42.8061 18.7008 41.5755 18.5893C41.3125 18.5596 41.0512 18.5156 40.793 18.4576L40.8467 18.3241C41.0934 18.376 41.3419 18.4187 41.5885 18.4465C42.8035 18.5508 44.0273 18.4378 45.2026 18.1127L45.4956 18.0367L45.6217 18.0015C46.0742 17.8828 46.5285 17.7623 46.9903 17.6732C47.5948 17.5522 48.2096 17.4901 48.8261 17.4878C49.4411 17.4838 50.0554 17.5272 50.6638 17.6176L50.8473 17.6547Z" fill="black"/>
<path d="M50.8024 18.1422L50.7894 18.2868C50.7116 18.2738 50.6337 18.2646 50.5558 18.2553C49.5036 18.1618 48.4433 18.2363 47.4145 18.476C47.3787 18.4813 47.3434 18.4894 47.3088 18.5001C47.1864 18.526 47.064 18.5575 46.9379 18.5891C46.3464 18.7411 45.7548 18.9117 45.1503 19.0286C44.5458 19.1496 43.931 19.2117 43.3145 19.214C42.6995 19.2181 42.0851 19.1747 41.4768 19.0842C41.1838 19.0397 40.8908 18.9803 40.6016 18.9136C40.6058 18.8989 40.6114 18.8846 40.6183 18.8709C40.9057 18.9358 41.195 18.9896 41.4861 19.0304C42.0912 19.1135 42.7019 19.1494 43.3126 19.138C43.9232 19.1278 44.5313 19.0576 45.1281 18.9284C45.7252 18.8042 46.3093 18.6224 46.9045 18.4667L47.0195 18.437C47.0493 18.4276 47.0796 18.4202 47.1104 18.4148C48.2363 18.1106 49.4075 18.0101 50.5688 18.1181L50.8024 18.1422Z" fill="black"/>
</g>
<path d="M45.8708 10.7062C44.964 12.0042 41.1421 17.4431 41.0309 17.7268C40.9196 18.0105 38.9614 23.7423 38.7574 24.6695C38.6146 25.3241 34.1122 23.149 34.2717 22.5871C34.6426 21.2705 35.6625 17.3225 36.6453 15.891C37.9267 14.0273 43.2023 9.58613 44.8045 8.95194C46.4067 8.31775 47.3598 8.56623 45.8708 10.7062Z" fill="#FFC4C0"/>
<path d="M36.1969 26.8019C36.4788 26.6332 36.5678 26.7797 36.3619 27.3249C36.1561 27.8701 34.8673 29.8561 35.5961 30.2455C36.3249 30.6349 38.1013 27.8107 38.3776 26.8761C38.6539 25.9415 38.7745 24.3301 38.7745 24.3301C38.3276 24.8104 37.1111 25.8711 36.1969 26.8019Z" fill="#FFC4C0"/>
<path d="M34.8995 21.3821C33.6663 22.784 32.0438 24.4529 31.6451 26.5205C31.595 26.7495 31.6238 26.9886 31.7267 27.1992C31.5412 28.1264 31.9121 28.4973 31.9121 28.4973C31.9937 29.4133 32.4332 29.7378 32.4332 29.7378C32.4332 29.7378 32.2162 30.8245 32.8504 31.0656C33.5625 31.3363 33.7275 29.7675 34.3506 28.9442C35.7766 27.0898 38.3245 24.8312 38.7881 24.3361L34.8995 21.3821Z" fill="#FFC4C0"/>
<path d="M34.4668 25.9362C34.0425 26.4764 33.6558 27.0451 33.3097 27.6385C32.9714 28.3102 32.6838 29.0063 32.4493 29.721C32.4481 29.7247 32.4457 29.7279 32.4426 29.7302C32.4394 29.7325 32.4356 29.7337 32.4317 29.7337C32.4278 29.7337 32.424 29.7325 32.4208 29.7302C32.4176 29.7279 32.4153 29.7247 32.4141 29.721C32.7276 28.2895 33.4288 26.9718 34.4409 25.9121C34.465 25.8935 34.4872 25.9121 34.4668 25.9362Z" fill="#263238"/>
<path d="M32.9204 24.371C32.3308 25.3538 32.0841 26.04 31.7299 27.1952C31.7299 27.1952 31.7151 27.1952 31.717 27.1952C31.984 25.849 32.2325 25.3891 32.8889 24.3488C32.9112 24.3117 32.9427 24.3339 32.9204 24.371Z" fill="#263238"/>
<path d="M40.1172 20.4047C40.1747 20.134 40.2488 19.8688 40.323 19.6055C40.3972 19.3422 40.4825 19.0807 40.5678 18.8192C40.6531 18.5578 40.7532 18.3 40.8515 18.0441C40.9018 17.9151 40.9639 17.7909 41.037 17.6732C41.1204 17.562 41.1983 17.4489 41.2836 17.3413C41.2242 17.4656 41.1575 17.5861 41.0981 17.7122C41.0399 17.831 40.9933 17.9552 40.9591 18.0831C40.8775 18.3445 40.7922 18.6041 40.705 18.8656C40.6179 19.1271 40.5289 19.3848 40.4306 19.6407C40.3323 19.8966 40.2303 20.1525 40.1172 20.4047Z" fill="#263238"/>
<path d="M43.4965 15.1564L38.7734 12.6605C38.7734 12.6605 43.6152 9.33374 45.3156 8.76631C47.2275 8.11728 47.1403 9.23732 46.3059 10.9674C45.4714 12.6976 43.4965 15.1564 43.4965 15.1564Z" fill="#FF42B3"/>
<path d="M43.8004 14.2983C43.6483 14.187 42.1834 13.397 41.8607 13.2339C41.5381 13.0707 40.2289 12.3827 39.8821 12.2399C39.8792 12.2379 39.8756 12.2372 39.8721 12.2379C39.8686 12.2386 39.8655 12.2407 39.8636 12.2436C39.8616 12.2466 39.8609 12.2502 39.8616 12.2537C39.8623 12.2571 39.8643 12.2602 39.8673 12.2622C40.1807 12.4661 41.501 13.1615 41.8255 13.3377C42.15 13.5139 43.6168 14.2649 43.7893 14.3205C43.8004 14.3261 43.8115 14.3057 43.8004 14.2983Z" fill="#263238"/>
<path d="M42.8828 14.8395C43.0961 14.9304 43.3056 15.025 43.5114 15.127H43.4632L44.6445 13.51C45.0357 12.9685 45.4289 12.4307 45.8016 11.8726C45.6538 12.1736 45.4898 12.4665 45.3102 12.7497C45.1359 13.0371 44.9393 13.306 44.7539 13.586C44.5684 13.866 44.3607 14.1275 44.1586 14.3945C43.9565 14.6615 43.7432 14.9193 43.5281 15.177L43.5059 15.203L43.4799 15.1882C43.2759 15.0806 43.0794 14.9712 42.8828 14.8395Z" fill="#263238"/>
<path d="M45.041 13.0728C45.1332 12.9518 45.2355 12.8388 45.347 12.7353C45.4573 12.6311 45.5751 12.535 45.6993 12.4479C45.6612 12.5136 45.6172 12.5757 45.5677 12.6333C45.5185 12.6921 45.4659 12.7478 45.41 12.8002C45.3002 12.9076 45.176 12.9994 45.041 13.0728Z" fill="#263238"/>
<path d="M46.8729 8.77787C46.9582 8.96331 48.1579 10.0963 49.0684 9.89049C49.3651 9.82188 49.0555 8.18818 49.0555 8.18818V8.06209L49.1204 6.30044L46.8951 5.39366L46.5762 5.27869C46.5762 5.27869 46.591 5.76082 46.6133 6.36349C46.6133 6.3913 46.6133 6.41912 46.6133 6.44879C46.6114 6.48152 46.6114 6.51434 46.6133 6.54707C46.6133 6.63608 46.6133 6.73251 46.6225 6.81966C46.6318 6.90682 46.6225 6.95688 46.6337 7.02921C46.6448 7.10153 46.6448 7.17385 46.6485 7.24802C46.689 7.76241 46.764 8.27351 46.8729 8.77787Z" fill="#FFC4C0"/>
<path d="M49.1266 6.2909L49.0803 7.54074C48.1531 7.91161 47.0145 7.68538 46.6993 7.6112C46.6863 7.48881 46.6751 7.36272 46.664 7.24033C46.664 7.16616 46.6547 7.09569 46.651 7.02151C46.6473 6.94734 46.6418 6.88058 46.6381 6.81197C46.6343 6.74336 46.6381 6.62654 46.6288 6.53938C46.6288 6.50786 46.6288 6.47448 46.6288 6.4411C46.6288 6.40772 46.6288 6.38361 46.6288 6.3558C46.6047 5.75313 46.5898 5.271 46.5898 5.271L46.9088 5.38597L49.1266 6.2909Z" fill="#263238"/>
<path d="M44.7543 2.86026C43.2467 5.56207 44.695 6.76926 45.2791 7.09377C45.8076 7.38861 47.6471 8.32321 49.4254 5.79572C51.2038 3.26822 50.4231 1.71611 49.24 0.974369C48.0569 0.232623 46.26 0.15845 44.7543 2.86026Z" fill="#FFC4C0"/>
<path d="M45.6778 2.52144C45.7446 2.54636 45.8127 2.56741 45.8818 2.58449C45.9505 2.61718 46.0283 2.62568 46.1025 2.6086C46.1249 2.5993 46.1435 2.5827 46.1553 2.56149C46.1671 2.54028 46.1713 2.51571 46.1674 2.49177C46.1529 2.44552 46.1264 2.40396 46.0906 2.37137C46.0547 2.33878 46.0108 2.31633 45.9634 2.30634C45.8704 2.27012 45.7671 2.27012 45.6741 2.30634C45.6538 2.31623 45.6367 2.33172 45.6249 2.35099C45.6131 2.37025 45.6071 2.39248 45.6074 2.41507C45.6078 2.43766 45.6147 2.45968 45.6271 2.47852C45.6396 2.49736 45.6572 2.51225 45.6778 2.52144Z" fill="#263238"/>
<path d="M47.45 3.53353C47.3937 3.48954 47.3398 3.44249 47.2887 3.39259C47.225 3.35119 47.1767 3.28991 47.1514 3.21828C47.1481 3.19441 47.1527 3.17011 47.1644 3.14904C47.1761 3.12797 47.1943 3.11127 47.2163 3.10146C47.2634 3.0894 47.3129 3.08991 47.3597 3.10292C47.4066 3.11594 47.4492 3.14101 47.4834 3.17563C47.5625 3.23619 47.6161 3.32417 47.6336 3.42226C47.6367 3.44489 47.6332 3.46794 47.6234 3.48858C47.6136 3.50921 47.598 3.52652 47.5784 3.53836C47.5589 3.5502 47.5363 3.55605 47.5135 3.55519C47.4907 3.55433 47.4686 3.5468 47.45 3.53353Z" fill="#263238"/>
<path d="M46.7075 4.01355C46.7075 4.01355 46.7168 4.03024 46.7075 4.03766C46.5944 4.22309 46.4961 4.4382 46.624 4.59397C46.4386 4.4586 46.5814 4.16375 46.7075 4.01355Z" fill="#263238"/>
<path d="M46.9821 3.91929C47.2863 4.0695 46.9654 4.66104 46.6817 4.52938C46.398 4.39772 46.7262 3.79319 46.9821 3.91929Z" fill="#263238"/>
<path d="M47.0823 4.01348C47.1175 4.07652 47.1361 4.16368 47.1954 4.19891C47.2548 4.23415 47.353 4.21189 47.4328 4.17666C47.442 4.17666 47.4439 4.17666 47.4328 4.18964C47.3734 4.30461 47.2659 4.39918 47.1324 4.34912C47.0786 4.31823 47.0382 4.26864 47.0187 4.20981C46.9992 4.15098 47.002 4.08703 47.0267 4.03016C47.0341 4.01162 47.0693 3.98937 47.0823 4.01348Z" fill="#263238"/>
<path d="M45.6546 3.3927C45.6546 3.3927 45.636 3.3927 45.6323 3.3927C45.5396 3.57814 45.4024 3.78212 45.2003 3.76357C45.2003 3.76357 45.1891 3.77285 45.2003 3.7747C45.4209 3.85629 45.6008 3.58741 45.6546 3.3927Z" fill="#263238"/>
<path d="M45.5949 3.10321C45.3075 2.91777 44.9663 3.50931 45.2333 3.67806C45.5004 3.84681 45.8397 3.26083 45.5949 3.10321Z" fill="#263238"/>
<path d="M45.4508 3.07744C45.3859 3.07744 45.3062 3.11267 45.2487 3.07744C45.1912 3.04221 45.1708 2.9532 45.1653 2.86975C45.1653 2.86975 45.1653 2.86975 45.1523 2.86975C45.0855 2.98101 45.054 3.12009 45.1523 3.20354C45.2506 3.28698 45.3674 3.22579 45.4583 3.12936C45.4694 3.11638 45.4694 3.07559 45.4508 3.07744Z" fill="#263238"/>
<path d="M45.8396 5.46783C45.7746 5.50355 45.6991 5.51536 45.6263 5.50121C45.5547 5.46711 45.4914 5.41774 45.4409 5.35657C45.4409 5.35657 45.426 5.35657 45.4279 5.35657C45.4366 5.40623 45.4583 5.45267 45.4909 5.49113C45.5235 5.52959 45.5658 5.55867 45.6133 5.57538C45.6569 5.5836 45.7019 5.57885 45.7428 5.56171C45.7837 5.54456 45.8186 5.51579 45.8433 5.47895C45.8692 5.47525 45.8563 5.46412 45.8396 5.46783Z" fill="#263238"/>
<path d="M45.4455 4.37542C45.4455 4.37542 45.26 4.62946 45.1822 4.75927C45.1822 4.77039 45.2044 4.7945 45.2471 4.82046C45.3471 4.90269 45.468 4.95557 45.5964 4.97325C45.7247 4.99092 45.8554 4.9727 45.974 4.9206C45.9888 4.9206 45.974 4.89093 45.9647 4.89278C45.736 4.9148 45.5063 4.8621 45.3101 4.74258C45.3212 4.70178 45.6513 4.31793 45.6328 4.30495C45.5266 4.25893 45.4151 4.22653 45.3008 4.20852C45.681 3.66705 46.1464 3.19233 46.5173 2.64715C46.5205 2.64314 46.5221 2.63807 46.5217 2.63295C46.5213 2.62783 46.5191 2.62304 46.5153 2.61953C46.5116 2.61602 46.5066 2.61405 46.5015 2.61401C46.4964 2.61398 46.4914 2.61588 46.4876 2.61933C45.9748 3.11471 45.5121 3.65944 45.1061 4.24561C45.0598 4.31793 45.3806 4.368 45.4455 4.37542Z" fill="#263238"/>
<path d="M45.3848 4.83142C45.4037 4.95869 45.4555 5.07883 45.535 5.18004C45.5793 5.23432 45.6397 5.27325 45.7074 5.2913C45.8558 5.32839 45.9244 5.21157 45.9578 5.10587C45.9737 5.04523 45.983 4.98306 45.9856 4.92043C45.781 4.9568 45.5701 4.92555 45.3848 4.83142Z" fill="#263238"/>
<path d="M45.5352 5.18018C45.5795 5.23446 45.6399 5.27339 45.7076 5.29144C45.856 5.32853 45.9246 5.21171 45.958 5.10601C45.8893 5.06943 45.8104 5.05687 45.7338 5.07031C45.6572 5.08375 45.5873 5.12242 45.5352 5.18018Z" fill="#FF9CBD"/>
<path d="M49.1433 5.79782C48.574 5.4733 49.2749 4.14929 49.2749 4.14929C49.2749 4.14929 49.0116 3.8359 48.9764 2.95693C48.9764 2.95693 48.9282 3.67272 49.1766 4.11776C49.2193 4.19194 47.3649 2.90501 48.014 1.29728C47.6293 1.61042 47.182 1.83749 46.7022 1.9632C46.2224 2.08891 45.7212 2.11034 45.2324 2.02604C45.1823 2.01492 46.1151 0.74653 46.5787 0.588909C46.8476 0.495688 47.1275 0.437719 47.4113 0.416453C48.2459 0.303339 49.0916 0.522417 49.7663 1.02654C50.8789 1.87213 50.9624 3.57814 50.764 4.14929C50.3764 5.27118 49.4121 5.95173 49.1433 5.79782Z" fill="#263238"/>
<path d="M49.0952 4.11571C48.0494 3.4741 47.5765 2.31698 48.0939 1.17284C48.1069 1.14502 48.0661 1.12277 48.0475 1.14688C47.2854 2.17605 48.0345 3.65954 49.0934 4.13982C49.1193 4.15095 49.1193 4.13055 49.0952 4.11571Z" fill="#263238"/>
<path d="M48.0535 1.2598C48.0535 1.2598 48.0535 1.24682 48.0443 1.2598C47.4564 1.66961 46.6257 2.51335 45.8487 2.02936C45.8283 2.01638 45.806 2.04605 45.8264 2.05903C46.5311 2.58196 47.627 1.85319 48.0535 1.2598Z" fill="#263238"/>
<path d="M48.8803 5.7593C48.8803 5.7593 49.8909 5.15478 50.1932 5.55532C50.4954 5.95586 49.4514 7.02212 48.9099 6.98689C48.8394 6.9872 48.7695 6.97321 48.7044 6.94577C48.6394 6.91834 48.5806 6.87803 48.5316 6.82726C48.4825 6.77649 48.4443 6.71633 48.4191 6.65038C48.394 6.58444 48.3824 6.51409 48.3852 6.44356L48.8803 5.7593Z" fill="#FFC4C0"/>
<path d="M49.8888 5.85338C49.8981 5.85338 49.8888 5.86821 49.8888 5.86636C49.4994 5.85338 49.1897 6.07961 48.9264 6.34108C48.9604 6.31683 48.9992 6.30024 49.0402 6.29242C49.0812 6.2846 49.1235 6.28576 49.164 6.2958C49.2045 6.30584 49.2424 6.32454 49.275 6.3506C49.3076 6.37666 49.3342 6.40947 49.3529 6.44677C49.3529 6.44677 49.3436 6.46717 49.3362 6.45976C49.2864 6.41509 49.224 6.38699 49.1576 6.37935C49.0911 6.37171 49.024 6.3849 48.9653 6.41711C48.8679 6.4686 48.7764 6.53079 48.6928 6.60254C48.6631 6.62479 48.6186 6.58585 48.6445 6.55618C48.83 6.13339 49.4197 5.69947 49.8888 5.85338Z" fill="#263238"/>
<path d="M45.5588 8.5384C45.4123 8.35296 46.4452 8.35296 46.6974 8.55323C46.9496 8.75351 47.9139 11.2717 47.4169 14.4705C46.9199 17.6693 40.5965 20.1634 40.3555 19.6776L40.8191 18.2961C41.0601 18.0476 45.2046 16.6271 45.7442 14.6448C46.2227 12.8869 46.18 9.29498 45.5588 8.5384Z" fill="#263238"/>
<path d="M60.4148 23.6609L60.9174 17.5731L62.208 12.2195L58.4585 12.544L55.7326 11.7077L52.8027 12.2955L49.3647 11.1495L49.8005 17.0279L48.7676 22.7968L51.3507 23.7129L54.5254 23.0712L57.0881 24.1894L60.4148 23.6609Z" fill="#EBEBEB"/>
<path d="M57.0881 24.1891L58.4585 12.5437L55.7326 11.7074L54.5254 23.0709L57.0881 24.1891Z" fill="#DBDBDB"/>
<path d="M51.3507 23.7129L52.8027 12.2955L49.3647 11.1495L49.8005 17.0279L48.7676 22.7968L51.3507 23.7129Z" fill="#DBDBDB"/>
<path d="M61.7311 14.9031C62.1335 15.6578 63.1014 16.572 63.2146 17.1951C63.2462 17.3489 63.2271 17.5088 63.1602 17.6508C63.0934 17.7929 62.9823 17.9095 62.8437 17.9832C62.8437 17.9832 63.4872 18.2669 63.4909 18.851C63.4909 19.1514 63.0124 19.4166 63.0124 19.4166C63.0124 19.4166 63.5187 19.6669 63.489 20.1862C63.4649 20.5997 62.9883 20.8055 62.9883 20.8055C62.9883 20.8055 63.3592 21.2691 63.2034 21.6845C62.8808 22.5227 59.326 22.6951 58.714 21.4119C58.4285 20.8148 59.2981 20.8203 59.2981 20.8203C59.2981 20.8203 58.0483 20.5107 58.0001 19.7782C57.9519 19.0457 59.0756 19.1218 59.0756 19.1218C59.0756 19.1218 57.8666 18.8102 57.887 18.0462C57.9092 17.2507 59.0274 17.5196 59.0274 17.5196C59.0274 17.5196 58.2115 17.0208 58.3598 16.4385C58.6083 15.4798 60.1623 16.5961 60.9337 16.3736L61.3046 15.0644L61.7311 14.9031Z" fill="#FFC4C0"/>
<path d="M62.4963 15.9894C62.1773 15.2477 63.073 14.2574 62.8671 13.5009C62.5927 12.4754 61.4745 13.5472 61.2891 15.0641L61.3503 16.2676L62.4963 15.9894Z" fill="#FFC4C0"/>
<path d="M62.9128 20.8481C62.9153 20.8481 62.9177 20.8491 62.9194 20.8508C62.9211 20.8526 62.9221 20.8549 62.9221 20.8574C62.9221 20.8598 62.9211 20.8622 62.9194 20.8639C62.9177 20.8657 62.9153 20.8666 62.9128 20.8666C61.7124 21.2254 60.4312 21.2106 59.2393 20.824C59.2023 20.811 59.2078 20.7443 59.2523 20.7517C60.4613 20.9613 61.6945 20.9938 62.9128 20.8481Z" fill="#263238"/>
<path d="M63.0264 19.4215C63.0394 19.4215 63.0431 19.4419 63.0264 19.4475C61.8341 19.7924 60.2857 19.7738 59.0229 19.1526C58.9802 19.1322 58.9635 19.0692 59.0229 19.0896C59.887 19.4401 61.886 19.5773 63.0264 19.4215Z" fill="#263238"/>
<path d="M58.9386 17.4451C60.1717 17.9922 61.4568 18.0905 62.7901 18.0014C62.8086 18.0014 62.8086 18.0256 62.7901 18.0311C62.1503 18.2518 61.2936 18.2166 60.6279 18.1405C60.0098 18.0763 59.4193 17.852 58.9145 17.4896C58.8996 17.473 58.9126 17.4322 58.9386 17.4451Z" fill="#263238"/>
</svg>
