<svg width="32" height="71" viewBox="0 0 32 71" fill="none" xmlns="http://www.w3.org/2000/svg">
<rect x="0.75" y="1.25" width="30.5" height="68.5" rx="5.25" fill="white"/>
<rect x="0.75" y="1.25" width="30.5" height="68.5" rx="5.25" stroke="#2C5DEB" stroke-width="1.5"/>
<path d="M5 62.2C5 61.175 5 60.6624 5.16747 60.2581C5.39075 59.7191 5.81903 59.2908 6.3581 59.0675C6.76239 58.9 7.27493 58.9 8.3 58.9H23.7C24.7251 58.9 25.2376 58.9 25.6419 59.0675C26.181 59.2908 26.6092 59.7191 26.8325 60.2581C27 60.6624 27 61.175 27 62.2C27 63.2251 27 63.7376 26.8325 64.1419C26.6092 64.681 26.181 65.1093 25.6419 65.3326C25.2376 65.5 24.7251 65.5 23.7 65.5H8.3C7.27493 65.5 6.76239 65.5 6.3581 65.3326C5.81903 65.1093 5.39075 64.681 5.16747 64.1419C5 63.7376 5 63.2251 5 62.2Z" fill="#E4EBF9"/>
<g opacity="0.7">
<path d="M17.1144 26.2501H14.3716C13.6173 26.2501 13.0001 26.9251 13.0001 27.7501V32.2501H14.3716V37.5001H17.1144V32.2501H18.4858V27.7501C18.4858 26.9251 17.8687 26.2501 17.1144 26.2501Z" fill="#2C5DEB"/>
<path d="M15.7429 25.5001C16.5003 25.5001 17.1143 24.8285 17.1143 24.0001C17.1143 23.1717 16.5003 22.5001 15.7429 22.5001C14.9855 22.5001 14.3715 23.1717 14.3715 24.0001C14.3715 24.8285 14.9855 25.5001 15.7429 25.5001Z" fill="#2C5DEB"/>
</g>
</svg>
