<svg xmlns="http://www.w3.org/2000/svg" width="98" height="81" viewBox="0 0 98 81" fill="none">
  <path d="M97.5875 71.9103L87.3146 46.7316C86.3075 44.1131 83.6889 42.3002 80.6674 42.3002H64.956L55.6902 19.5387C55.4888 19.1358 54.8845 18.7329 54.4816 18.9344C54.0788 19.1358 53.6759 19.7401 53.8773 20.1429L63.7474 44.1131H80.6674C82.8832 44.1131 84.6961 45.3216 85.5018 47.3359L95.7747 72.5146C96.1775 73.5218 96.1775 74.5289 95.7747 75.3346C95.3718 76.3418 94.5661 76.9461 93.559 77.3489C91.7461 77.9532 89.7318 77.1475 88.9261 75.3346L82.8832 62.6446C82.8832 62.4431 82.6818 62.2417 82.4803 62.2417C82.4803 61.8388 82.6817 61.2346 82.6817 60.8317C82.6817 56.6017 79.2575 52.9759 74.826 52.9759H54.4816C53.2731 52.9759 52.2659 52.1702 51.8631 51.1631L42.3959 27.9987C41.7916 25.3801 41.993 22.5601 42.7987 19.9415L43.2016 18.7329V18.5315C43.403 18.5315 43.6044 18.5315 43.8059 18.5315C49.043 18.5315 53.0716 14.3015 53.0716 9.26576C53.0716 4.23002 48.8416 0 43.8059 0C38.5687 0 34.5401 4.23002 34.5401 9.26576C34.5401 10.4743 34.7416 11.6829 35.1444 12.6901C33.7344 11.4815 31.9215 10.8772 29.9072 10.8772C27.2887 10.8772 24.6701 12.2872 23.0587 14.5029C21.4472 16.7186 21.2458 19.5387 22.2529 22.1572L28.2958 37.8687C28.4972 38.2716 29.1015 38.6745 29.5044 38.473C29.9072 38.2716 30.3101 37.6673 30.1087 37.2645L24.0658 21.553C23.2601 19.5387 23.4615 17.5244 24.6701 15.7115C25.8787 13.8986 27.6915 12.8915 29.9072 12.8915C32.5258 12.8915 34.7416 14.5029 35.7487 16.9201L40.583 28.8044C40.7844 29.6101 40.9859 30.4158 41.3887 31.2216L50.0502 51.9688C50.8559 53.7817 52.4673 54.9902 54.4816 54.9902H74.826C78.0489 54.9902 80.8689 57.6088 80.8689 61.0331C80.8689 64.4574 78.2503 67.076 74.826 67.076H49.6473C44.813 67.076 40.583 64.256 38.7701 59.6231C38.5687 59.2203 37.9644 58.8174 37.5616 59.0188C37.1587 59.2203 36.7558 59.8246 36.9573 60.2274C38.9716 65.4646 44.0073 68.8889 49.4459 68.8889H58.7117V78.5575H50.2516C49.6473 78.5575 49.2445 78.9604 49.2445 79.5646C49.2445 80.1689 49.6473 80.5718 50.2516 80.5718H69.186C69.7903 80.5718 70.1931 80.1689 70.1931 79.5646C70.1931 78.9604 69.7903 78.5575 69.186 78.5575H60.7259V68.8889H74.826C77.8475 68.8889 80.466 67.2774 81.6746 64.6589L87.1132 76.3418C87.9189 78.3561 90.1347 79.7661 92.1489 79.7661C92.7532 79.7661 93.3575 79.7661 93.9618 79.5646C95.3718 79.1618 96.5804 77.9532 97.1847 76.5432C98.1918 74.9318 98.1918 73.3203 97.5875 71.9103ZM41.1873 19.5387C40.7844 20.7472 40.583 21.7544 40.3816 22.963L37.763 16.3158C38.7701 17.3229 40.1801 17.9272 41.5902 18.3301L41.1873 19.5387ZM43.8059 1.81287C47.8345 1.81287 51.2588 5.23717 51.2588 9.26576C51.2588 13.2943 47.8345 16.7186 43.8059 16.7186C39.7773 16.7186 36.353 13.2943 36.353 9.26576C36.353 5.23717 39.7773 1.81287 43.8059 1.81287Z" fill="#202F59"/>
  <path d="M17.8215 70.9027C27.1662 70.9027 34.7416 63.3273 34.7416 53.9826C34.7416 44.6379 27.1662 37.0625 17.8215 37.0625C8.47679 37.0625 0.901428 44.6379 0.901428 53.9826C0.901428 63.3273 8.47679 70.9027 17.8215 70.9027Z" fill="#D84E55"/>
  <path d="M17.8215 71.9089C13.7929 71.9089 9.76434 70.4989 6.54147 67.8803C2.91574 64.8589 0.498598 60.6289 0.0957392 55.7946C-0.911408 45.9245 6.13862 37.263 16.0087 36.2559C25.8787 35.2487 34.5402 42.2988 35.5473 52.1688C36.5545 62.0389 29.5044 70.7003 19.6344 71.7075C19.2315 71.9089 18.4258 71.9089 17.8215 71.9089ZM18.023 38.0688C17.4187 38.0688 16.8144 38.0688 16.4115 38.0688C7.54862 39.0759 1.30432 46.9317 2.11003 55.5931C2.51289 59.8232 4.52719 63.6503 7.95149 66.2689C11.1744 68.8875 15.4044 70.0961 19.6344 69.6932C28.4973 68.686 34.7416 60.8303 33.9359 52.1688C32.9287 44.1116 26.0801 38.0688 18.023 38.0688Z" fill="#202F59"/>
  <path d="M17.8215 57.8081C17.2173 57.8081 16.613 57.2038 16.613 56.5996V44.1109C16.613 43.5066 17.2173 42.9023 17.8215 42.9023C18.4258 42.9023 19.0301 43.5066 19.0301 44.1109V56.801C19.0301 57.4053 18.6273 57.8081 17.8215 57.8081Z" fill="white"/>
  <path d="M17.8215 65.062C17.2173 65.062 16.613 64.4578 16.613 63.8535V62.0406C16.613 61.4363 17.2173 60.832 17.8215 60.832C18.4258 60.832 19.0301 61.4363 19.0301 62.0406V63.8535C19.0301 64.4578 18.6273 65.062 17.8215 65.062Z" fill="white"/>
</svg>