<?xml version="1.0" encoding="UTF-8"?>
<svg xmlns="http://www.w3.org/2000/svg" xmlns:xlink="http://www.w3.org/1999/xlink" width="27px" height="27px" viewBox="0 0 27 27" version="1.1">
<g id="surface1">
<path style=" stroke:none;fill-rule:nonzero;fill:rgb(80.000001%,80.000001%,80.000001%);fill-opacity:1;" d="M 8.742188 -0.144531 C 9.121094 -0.144531 9.503906 -0.144531 9.886719 -0.148438 C 10.683594 -0.148438 11.480469 -0.144531 12.277344 -0.140625 C 13.292969 -0.132812 14.3125 -0.136719 15.332031 -0.144531 C 16.117188 -0.148438 16.90625 -0.148438 17.691406 -0.144531 C 18.066406 -0.144531 18.441406 -0.144531 18.816406 -0.148438 C 22.460938 -0.167969 22.460938 -0.167969 23.761719 1.078125 C 25.007812 2.683594 24.972656 4.078125 24.90625 6.058594 C 24.902344 6.332031 24.898438 6.609375 24.894531 6.890625 C 24.878906 7.5625 24.863281 8.238281 24.839844 8.910156 C 25.074219 8.933594 25.074219 8.933594 25.3125 8.960938 C 26.25 9.296875 26.507812 9.660156 27 10.53125 C 27.160156 11.558594 27.152344 12.578125 27.144531 13.617188 C 27.144531 14.066406 27.144531 14.066406 27.148438 14.527344 C 27.148438 15.160156 27.144531 15.792969 27.140625 16.425781 C 27.136719 17.394531 27.140625 18.359375 27.148438 19.328125 C 27.148438 19.945312 27.144531 20.5625 27.144531 21.175781 C 27.144531 21.464844 27.148438 21.753906 27.148438 22.050781 C 27.128906 23.695312 27.019531 24.667969 25.921875 25.921875 C 24.707031 26.984375 23.59375 27.042969 22.039062 27.050781 C 21.835938 27.054688 21.636719 27.054688 21.425781 27.058594 C 20.757812 27.066406 20.089844 27.070312 19.421875 27.074219 C 19.078125 27.074219 19.078125 27.074219 18.726562 27.078125 C 17.515625 27.085938 16.300781 27.089844 15.089844 27.09375 C 14.089844 27.097656 13.085938 27.105469 12.085938 27.117188 C 10.875 27.128906 9.664062 27.136719 8.453125 27.136719 C 7.996094 27.140625 7.535156 27.144531 7.074219 27.152344 C 2.621094 27.210938 2.621094 27.210938 1.175781 26.042969 C -0.214844 24.554688 -0.121094 22.960938 -0.117188 21.035156 C -0.117188 20.746094 -0.121094 20.460938 -0.121094 20.164062 C -0.125 19.558594 -0.121094 18.949219 -0.121094 18.34375 C -0.117188 17.417969 -0.125 16.492188 -0.132812 15.566406 C -0.136719 14.976562 -0.132812 14.386719 -0.132812 13.796875 C -0.136719 13.382812 -0.136719 13.382812 -0.144531 12.960938 C -0.128906 11.363281 -0.03125 10.367188 1.078125 9.179688 C 1.6875 8.945312 1.6875 8.945312 2.160156 8.910156 C 2.15625 8.738281 2.148438 8.570312 2.144531 8.394531 C 2.121094 7.617188 2.105469 6.835938 2.09375 6.058594 C 2.078125 5.65625 2.078125 5.65625 2.066406 5.246094 C 2.042969 3.515625 2.164062 2.460938 3.238281 1.078125 C 4.800781 -0.417969 6.691406 -0.15625 8.742188 -0.144531 Z M 8.742188 -0.144531 "/>
<path style=" stroke:none;fill-rule:nonzero;fill:rgb(97.647059%,97.647059%,97.647059%);fill-opacity:1;" d="M 6.902344 1.304688 C 7.375 1.300781 7.375 1.300781 7.855469 1.296875 C 8.367188 1.296875 8.367188 1.296875 8.890625 1.296875 C 9.238281 1.292969 9.589844 1.292969 9.949219 1.289062 C 10.691406 1.289062 11.429688 1.285156 12.171875 1.285156 C 13.121094 1.285156 14.066406 1.277344 15.015625 1.269531 C 15.921875 1.261719 16.828125 1.261719 17.734375 1.261719 C 18.070312 1.257812 18.410156 1.253906 18.761719 1.25 C 19.078125 1.253906 19.394531 1.253906 19.722656 1.253906 C 20 1.253906 20.28125 1.25 20.566406 1.25 C 21.683594 1.394531 22.394531 1.859375 23.164062 2.671875 C 23.550781 3.347656 23.585938 3.75 23.570312 4.527344 C 23.566406 4.765625 23.5625 5.007812 23.5625 5.253906 C 23.554688 5.503906 23.546875 5.75 23.539062 6.007812 C 23.535156 6.386719 23.535156 6.386719 23.53125 6.773438 C 23.519531 7.394531 23.507812 8.019531 23.488281 8.640625 C 23.226562 8.769531 22.964844 8.894531 22.695312 9.027344 C 21.921875 9.371094 21.921875 9.371094 21.601562 9.71875 C 21.566406 10.339844 21.550781 10.960938 21.542969 11.578125 C 21.535156 11.964844 21.527344 12.351562 21.519531 12.734375 C 21.507812 13.34375 21.5 13.953125 21.492188 14.5625 C 21.484375 15.148438 21.472656 15.734375 21.457031 16.320312 C 21.453125 16.671875 21.449219 17.023438 21.441406 17.386719 C 21.296875 18.65625 20.921875 19.507812 20.09375 20.480469 C 19.027344 20.984375 17.949219 20.910156 16.785156 20.90625 C 16.523438 20.910156 16.265625 20.910156 16 20.910156 C 15.453125 20.914062 14.902344 20.914062 14.355469 20.910156 C 13.519531 20.90625 12.683594 20.914062 11.847656 20.925781 C 11.316406 20.925781 10.785156 20.925781 10.253906 20.925781 C 10.003906 20.925781 9.753906 20.929688 9.496094 20.933594 C 8.390625 20.921875 7.726562 20.886719 6.75 20.324219 C 5.65625 19.078125 5.601562 17.992188 5.585938 16.367188 C 5.578125 15.980469 5.574219 15.59375 5.566406 15.210938 C 5.558594 14.605469 5.550781 14.003906 5.546875 13.398438 C 5.539062 12.8125 5.53125 12.226562 5.519531 11.640625 C 5.515625 11.292969 5.511719 10.945312 5.507812 10.582031 C 5.46875 9.738281 5.46875 9.738281 5.054688 9.210938 C 4.542969 8.878906 4.109375 8.742188 3.511719 8.640625 C 3.46875 7.773438 3.445312 6.90625 3.425781 6.042969 C 3.410156 5.675781 3.410156 5.675781 3.390625 5.300781 C 3.371094 4.089844 3.371094 3.238281 4.15625 2.273438 C 5.144531 1.359375 5.585938 1.316406 6.902344 1.304688 Z M 6.902344 1.304688 "/>
<path style=" stroke:none;fill-rule:nonzero;fill:rgb(97.254902%,97.254902%,97.254902%);fill-opacity:1;" d="M 4.320312 9.988281 C 4.84375 10.515625 4.632812 11.519531 4.636719 12.238281 C 4.644531 12.648438 4.648438 13.058594 4.65625 13.46875 C 4.667969 14.117188 4.675781 14.761719 4.679688 15.410156 C 4.683594 16.035156 4.691406 16.660156 4.703125 17.28125 C 4.703125 17.476562 4.703125 17.667969 4.703125 17.863281 C 4.738281 19.230469 5.042969 20.03125 5.941406 21.058594 C 7.3125 22.027344 8.640625 21.988281 10.261719 21.976562 C 10.515625 21.976562 10.773438 21.980469 11.039062 21.980469 C 11.582031 21.980469 12.125 21.980469 12.667969 21.976562 C 13.496094 21.972656 14.324219 21.976562 15.152344 21.980469 C 15.683594 21.980469 16.210938 21.980469 16.738281 21.976562 C 17.109375 21.980469 17.109375 21.980469 17.488281 21.984375 C 18.875 21.96875 19.863281 21.847656 21.058594 21.058594 C 22.1875 19.59375 22.453125 18.464844 22.496094 16.660156 C 22.503906 16.375 22.503906 16.375 22.511719 16.082031 C 22.53125 15.476562 22.546875 14.867188 22.5625 14.257812 C 22.574219 13.847656 22.585938 13.433594 22.597656 13.023438 C 22.625 12.011719 22.652344 11 22.679688 9.988281 C 23.625 9.902344 24.203125 9.941406 25.066406 10.351562 C 25.96875 11.464844 25.828125 12.523438 25.800781 13.914062 C 25.800781 14.328125 25.800781 14.328125 25.800781 14.753906 C 25.796875 15.339844 25.789062 15.925781 25.78125 16.515625 C 25.769531 17.410156 25.765625 18.308594 25.761719 19.207031 C 25.757812 19.777344 25.753906 20.347656 25.75 20.917969 C 25.746094 21.320312 25.746094 21.320312 25.746094 21.730469 C 25.742188 21.980469 25.738281 22.230469 25.734375 22.488281 C 25.726562 22.820312 25.726562 22.820312 25.722656 23.15625 C 25.597656 24.171875 25.328125 24.664062 24.527344 25.304688 C 23.5625 25.738281 22.828125 25.753906 21.773438 25.757812 C 21.578125 25.761719 21.382812 25.761719 21.183594 25.765625 C 20.539062 25.769531 19.898438 25.769531 19.253906 25.765625 C 18.808594 25.769531 18.359375 25.769531 17.910156 25.769531 C 16.972656 25.773438 16.035156 25.773438 15.09375 25.769531 C 13.894531 25.765625 12.695312 25.773438 11.492188 25.78125 C 10.570312 25.785156 9.644531 25.785156 8.71875 25.785156 C 8.273438 25.785156 7.832031 25.785156 7.390625 25.789062 C 6.769531 25.792969 6.152344 25.789062 5.53125 25.785156 C 5.179688 25.785156 4.828125 25.785156 4.464844 25.785156 C 3.339844 25.625 2.765625 25.28125 1.890625 24.570312 C 1.320312 23.714844 1.28125 23.5 1.273438 22.519531 C 1.269531 22.269531 1.265625 22.019531 1.261719 21.761719 C 1.261719 21.492188 1.261719 21.222656 1.257812 20.941406 C 1.257812 20.664062 1.253906 20.386719 1.253906 20.101562 C 1.25 19.511719 1.25 18.925781 1.25 18.335938 C 1.25 17.4375 1.238281 16.535156 1.230469 15.636719 C 1.226562 15.066406 1.226562 14.492188 1.226562 13.921875 C 1.21875 13.519531 1.21875 13.519531 1.214844 13.105469 C 1.226562 11.253906 1.226562 11.253906 1.835938 10.355469 C 2.683594 9.835938 3.347656 9.898438 4.320312 9.988281 Z M 4.320312 9.988281 "/>
<path style=" stroke:none;fill-rule:nonzero;fill:rgb(69.411767%,69.411767%,69.411767%);fill-opacity:1;" d="M 8.742188 -0.144531 C 9.121094 -0.144531 9.503906 -0.144531 9.886719 -0.148438 C 10.683594 -0.148438 11.480469 -0.144531 12.277344 -0.140625 C 13.292969 -0.132812 14.3125 -0.136719 15.332031 -0.144531 C 16.117188 -0.148438 16.90625 -0.148438 17.691406 -0.144531 C 18.066406 -0.144531 18.441406 -0.144531 18.816406 -0.148438 C 22.460938 -0.167969 22.460938 -0.167969 23.761719 1.078125 C 25.007812 2.683594 24.972656 4.078125 24.90625 6.058594 C 24.902344 6.332031 24.898438 6.609375 24.894531 6.890625 C 24.878906 7.5625 24.863281 8.238281 24.839844 8.910156 C 25.074219 8.933594 25.074219 8.933594 25.3125 8.960938 C 26.25 9.296875 26.507812 9.660156 27 10.53125 C 27.160156 11.558594 27.152344 12.578125 27.144531 13.617188 C 27.144531 14.066406 27.144531 14.066406 27.148438 14.527344 C 27.148438 15.160156 27.144531 15.792969 27.140625 16.425781 C 27.136719 17.394531 27.140625 18.359375 27.148438 19.328125 C 27.148438 19.945312 27.144531 20.5625 27.144531 21.175781 C 27.144531 21.464844 27.148438 21.753906 27.148438 22.050781 C 27.128906 23.695312 27.019531 24.667969 25.921875 25.921875 C 24.707031 26.984375 23.59375 27.042969 22.039062 27.050781 C 21.835938 27.054688 21.636719 27.054688 21.425781 27.058594 C 20.757812 27.066406 20.089844 27.070312 19.421875 27.074219 C 19.078125 27.074219 19.078125 27.074219 18.726562 27.078125 C 17.515625 27.085938 16.300781 27.089844 15.089844 27.09375 C 14.089844 27.097656 13.085938 27.105469 12.085938 27.117188 C 10.875 27.128906 9.664062 27.136719 8.453125 27.136719 C 7.996094 27.140625 7.535156 27.144531 7.074219 27.152344 C 2.621094 27.210938 2.621094 27.210938 1.175781 26.042969 C -0.214844 24.554688 -0.121094 22.960938 -0.117188 21.035156 C -0.117188 20.746094 -0.121094 20.460938 -0.121094 20.164062 C -0.125 19.558594 -0.121094 18.949219 -0.121094 18.34375 C -0.117188 17.417969 -0.125 16.492188 -0.132812 15.566406 C -0.136719 14.976562 -0.132812 14.386719 -0.132812 13.796875 C -0.136719 13.382812 -0.136719 13.382812 -0.144531 12.960938 C -0.128906 11.363281 -0.03125 10.367188 1.078125 9.179688 C 1.6875 8.945312 1.6875 8.945312 2.160156 8.910156 C 2.15625 8.738281 2.148438 8.570312 2.144531 8.394531 C 2.121094 7.617188 2.105469 6.835938 2.09375 6.058594 C 2.078125 5.65625 2.078125 5.65625 2.066406 5.246094 C 2.042969 3.515625 2.164062 2.460938 3.238281 1.078125 C 4.800781 -0.417969 6.691406 -0.15625 8.742188 -0.144531 Z M 3.78125 1.890625 C 3.039062 2.851562 2.871094 3.527344 2.890625 4.730469 C 2.894531 5.144531 2.894531 5.144531 2.898438 5.566406 C 2.910156 5.992188 2.910156 5.992188 2.917969 6.429688 C 2.921875 6.71875 2.925781 7.007812 2.929688 7.308594 C 2.941406 8.023438 2.953125 8.734375 2.96875 9.449219 C 2.660156 9.492188 2.660156 9.492188 2.34375 9.535156 C 1.542969 9.738281 1.308594 9.882812 0.808594 10.53125 C 0.683594 11.144531 0.683594 11.144531 0.695312 11.835938 C 0.691406 12.101562 0.6875 12.367188 0.683594 12.636719 C 0.683594 12.925781 0.683594 13.210938 0.683594 13.503906 C 0.679688 13.800781 0.679688 14.09375 0.675781 14.398438 C 0.675781 15.023438 0.671875 15.644531 0.675781 16.269531 C 0.675781 17.222656 0.664062 18.175781 0.652344 19.128906 C 0.648438 19.734375 0.648438 20.339844 0.648438 20.945312 C 0.644531 21.230469 0.640625 21.515625 0.636719 21.808594 C 0.644531 23.527344 0.644531 23.527344 1.445312 25 C 2.648438 26.09375 3.398438 26.269531 4.96875 26.273438 C 5.273438 26.277344 5.273438 26.277344 5.585938 26.28125 C 6.257812 26.285156 6.925781 26.289062 7.597656 26.289062 C 8.066406 26.292969 8.535156 26.296875 9 26.296875 C 9.980469 26.300781 10.960938 26.304688 11.941406 26.304688 C 13.195312 26.304688 14.449219 26.316406 15.703125 26.328125 C 16.667969 26.335938 17.632812 26.339844 18.597656 26.339844 C 19.058594 26.339844 19.519531 26.34375 19.984375 26.347656 C 20.632812 26.355469 21.277344 26.355469 21.925781 26.351562 C 22.117188 26.355469 22.304688 26.359375 22.5 26.363281 C 24.015625 26.339844 24.621094 25.871094 25.648438 24.839844 C 26.226562 23.976562 26.261719 23.738281 26.273438 22.746094 C 26.277344 22.484375 26.28125 22.222656 26.285156 21.957031 C 26.289062 21.535156 26.289062 21.535156 26.289062 21.105469 C 26.292969 20.816406 26.296875 20.527344 26.296875 20.226562 C 26.300781 19.617188 26.304688 19.003906 26.304688 18.390625 C 26.308594 17.453125 26.320312 16.519531 26.335938 15.582031 C 26.335938 14.988281 26.339844 14.390625 26.339844 13.796875 C 26.347656 13.515625 26.351562 13.238281 26.355469 12.949219 C 26.347656 11.648438 26.34375 11.007812 25.554688 9.9375 C 24.871094 9.375 24.871094 9.375 24.03125 9.449219 C 24.035156 9.269531 24.042969 9.089844 24.046875 8.90625 C 24.070312 8.085938 24.082031 7.265625 24.097656 6.445312 C 24.105469 6.164062 24.117188 5.882812 24.125 5.589844 C 24.144531 3.957031 24.125 2.871094 22.949219 1.621094 C 21.933594 0.890625 21.230469 0.707031 19.984375 0.699219 C 19.507812 0.695312 19.507812 0.695312 19.019531 0.691406 C 18.503906 0.691406 18.503906 0.691406 17.980469 0.691406 C 17.628906 0.691406 17.273438 0.691406 16.910156 0.6875 C 16.160156 0.6875 15.414062 0.6875 14.664062 0.691406 C 13.710938 0.691406 12.753906 0.6875 11.800781 0.679688 C 10.882812 0.671875 9.96875 0.675781 9.054688 0.675781 C 8.710938 0.671875 8.371094 0.671875 8.019531 0.667969 C 5.667969 0.660156 5.667969 0.660156 3.78125 1.890625 Z M 3.78125 1.890625 "/>
<path style=" stroke:none;fill-rule:nonzero;fill:rgb(80.784315%,80.784315%,80.784315%);fill-opacity:1;" d="M 7.289062 5.941406 C 8.484375 6.074219 9.003906 6.445312 9.835938 7.300781 C 10.050781 7.519531 10.265625 7.734375 10.484375 7.960938 C 10.707031 8.191406 10.925781 8.421875 11.15625 8.65625 C 11.378906 8.886719 11.605469 9.117188 11.839844 9.355469 C 12.394531 9.925781 12.949219 10.496094 13.5 11.070312 C 14.378906 10.683594 14.957031 10.214844 15.628906 9.53125 C 15.820312 9.339844 16.011719 9.144531 16.210938 8.945312 C 16.40625 8.746094 16.605469 8.542969 16.808594 8.335938 C 17.007812 8.132812 17.210938 7.929688 17.417969 7.71875 C 17.914062 7.21875 18.40625 6.714844 18.898438 6.210938 C 19.167969 6.300781 19.433594 6.386719 19.710938 6.480469 C 19.324219 7.359375 18.855469 7.9375 18.171875 8.609375 C 17.980469 8.800781 17.785156 8.992188 17.585938 9.191406 C 17.386719 9.386719 17.183594 9.585938 16.976562 9.789062 C 16.773438 9.988281 16.570312 10.191406 16.359375 10.398438 C 15.855469 10.894531 15.355469 11.386719 14.851562 11.878906 C 15.234375 12.761719 15.707031 13.339844 16.386719 14.011719 C 16.675781 14.296875 16.675781 14.296875 16.972656 14.589844 C 17.175781 14.789062 17.375 14.984375 17.582031 15.1875 C 17.789062 15.386719 17.992188 15.589844 18.199219 15.796875 C 18.703125 16.292969 19.207031 16.785156 19.710938 17.28125 C 19.621094 17.546875 19.53125 17.816406 19.441406 18.089844 C 18.558594 17.703125 17.980469 17.234375 17.308594 16.550781 C 17.117188 16.359375 16.925781 16.164062 16.730469 15.96875 C 16.53125 15.765625 16.335938 15.5625 16.132812 15.355469 C 15.929688 15.152344 15.730469 14.949219 15.523438 14.738281 C 15.027344 14.238281 14.53125 13.734375 14.039062 13.230469 C 13.132812 13.621094 12.566406 14.113281 11.886719 14.828125 C 11.691406 15.03125 11.492188 15.238281 11.285156 15.449219 C 10.871094 15.882812 10.457031 16.320312 10.042969 16.753906 C 9.84375 16.960938 9.644531 17.164062 9.441406 17.375 C 9.171875 17.660156 9.171875 17.660156 8.898438 17.945312 C 8.371094 18.359375 8.371094 18.359375 7.289062 18.359375 C 7.289062 17.550781 7.289062 17.550781 7.648438 17.171875 C 7.820312 17.035156 7.992188 16.898438 8.167969 16.757812 C 9.238281 15.863281 10.222656 14.910156 11.203125 13.921875 C 11.351562 13.773438 11.496094 13.628906 11.648438 13.476562 C 11.996094 13.125 12.34375 12.773438 12.691406 12.421875 C 12.289062 11.484375 11.761719 10.894531 11.035156 10.191406 C 10.816406 9.976562 10.597656 9.765625 10.375 9.542969 C 10.148438 9.324219 9.921875 9.101562 9.6875 8.875 C 9.234375 8.4375 8.785156 8 8.335938 7.558594 C 8.132812 7.363281 7.933594 7.171875 7.726562 6.96875 C 7.289062 6.480469 7.289062 6.480469 7.289062 5.941406 Z M 7.289062 5.941406 "/>
</g>
</svg>
